<?xml version="1.0" encoding="UTF-8"?>
<!DOCTYPE svg PUBLIC "-//W3C//DTD SVG 1.1//EN" "http://www.w3.org/Graphics/SVG/1.1/DTD/svg11.dtd">
<!-- Creator: CorelDRAW -->
<svg xmlns="http://www.w3.org/2000/svg" xml:space="preserve" width="1.59096in" height="1.59096in" version="1.1" style="shape-rendering:geometricPrecision; text-rendering:geometricPrecision; image-rendering:optimizeQuality; fill-rule:evenodd; clip-rule:evenodd"
viewBox="0 0 1031.78 1031.78"
 xmlns:xlink="http://www.w3.org/1999/xlink"
 xmlns:xodm="http://www.corel.com/coreldraw/odm/2003">
 <defs>
  <style type="text/css">
   <![CDATA[
    .fil0 {fill:none}
    .fil1 {fill:#231F20;fill-rule:nonzero}
    .fil2 {fill:#C22A13;fill-rule:nonzero}
   ]]>
  </style>
 </defs>
 <g id="Layer_x0020_1">
  <metadata id="CorelCorpID_0Corel-Layer"/>
  <g id="_2469460171232">
   <rect class="fil0" width="1031.78" height="1031.78" rx="146.66" ry="146.66"/>
   <g>
    <g>
     <path class="fil1" d="M926.29 100.74l-8.34 19.75 0 0 -0.31 -0.2 -0.34 -0.21 -0.34 -0.2 -0.36 -0.2 -0.37 -0.2 -0.38 -0.19 -0.41 -0.2 -0.41 -0.18 -0.44 -0.19 -0.46 -0.19 -0.47 -0.18 -0.49 -0.17 -0.51 -0.17 -0.52 -0.16 -0.52 -0.15 -0.56 -0.15 -0.58 -0.15 -0.59 -0.14 -0.61 -0.13 -0.62 -0.12 -0.66 -0.12 -0.66 -0.11 -0.66 -0.09 -0.7 -0.09 -0.71 -0.08 -0.73 -0.07 -0.73 -0.06 -0.77 -0.05 -0.79 -0.04 -0.78 -0.03 -0.81 -0.02 -0.83 -0.01 -6.09 -24.53 1.1 0.01 1.09 0.02 1.1 0.04 1.06 0.05 1.07 0.07 1.09 0.08 1.06 0.1 1.06 0.11 1.05 0.13 1.06 0.15 1.04 0.17 1.02 0.18 1.05 0.2 1.03 0.22 1.02 0.24 1.01 0.26 1.01 0.27 1.03 0.3 1.01 0.32 1 0.33 1 0.36 0.99 0.38 0.98 0.4 0.98 0.42 0.99 0.45 0.96 0.46 0.98 0.5 0.96 0.52 0.95 0.54 0.94 0.56 0.92 0.57 0.93 0.62 0 0zm19.17 25.96l-22.33 0 0 -0.01 -0.06 -0.23 -0.05 -0.19 -0.06 -0.18 -0.07 -0.21 -0.07 -0.2 -0.06 -0.15 -0.08 -0.18 -0.08 -0.18 -0.07 -0.13 -0.09 -0.17 -0.08 -0.15 -0.08 -0.13 -0.13 -0.2 -0.1 -0.15 -0.1 -0.14 -0.14 -0.18 -0.11 -0.15 -0.16 -0.19 -0.17 -0.2 -0.15 -0.16 -0.19 -0.21 -0.19 -0.2 -0.21 -0.2 -0.24 -0.23 -0.24 -0.21 -0.26 -0.22 -0.27 -0.23 -0.31 -0.25 -0.31 -0.24 -0.33 -0.25 -0.35 -0.26 -0.38 -0.26 8.34 -19.75 0.84 0.58 0.83 0.59 0.82 0.61 0.81 0.63 0.79 0.63 0.79 0.66 0.78 0.68 0.77 0.69 0.74 0.7 0.75 0.73 0.73 0.75 0.7 0.75 0.71 0.8 0.67 0.78 0.65 0.8 0.66 0.85 0.61 0.83 0.62 0.89 0.59 0.89 0.53 0.84 0.55 0.93 0.52 0.92 0.48 0.9 0.47 0.95 0.43 0.92 0.41 0.92 0.39 0.98 0.35 0.93 0.33 0.94 0.31 0.97 0.28 0.98 0.25 0.95 0 -0.01zm-5.87 27.55l-19.5 -18.19 0 -0 0.31 -0.42 0.3 -0.43 0.28 -0.42 0.25 -0.39 0.24 -0.4 0.23 -0.39 0.21 -0.38 0.19 -0.37 0.17 -0.36 0.17 -0.37 0.15 -0.35 0.12 -0.32 0.11 -0.32 0.1 -0.32 0.09 -0.3 0.08 -0.29 0.06 -0.29 0.05 -0.27 0.04 -0.26 0.03 -0.25 0.03 -0.24 0.02 -0.23 0.01 -0.22 0 -0.22 -0.01 -0.21 -0.01 -0.2 -0.02 -0.2 -0.02 -0.19 -0.03 -0.19 -0.03 -0.19 -0.04 -0.19 -0.04 -0.18 22.33 0 0.23 1 0.2 0.99 0.17 0.99 0.14 0.99 0.11 0.98 0.08 0.98 0.05 0.97 0.02 0.96 -0.01 0.95 -0.04 0.94 -0.07 0.93 -0.09 0.92 -0.12 0.91 -0.15 0.9 -0.17 0.89 -0.2 0.87 -0.22 0.86 -0.25 0.85 -0.27 0.83 -0.29 0.83 -0.32 0.83 -0.33 0.79 -0.34 0.78 -0.37 0.78 -0.39 0.77 -0.41 0.76 -0.43 0.74 -0.45 0.74 -0.47 0.74 -0.48 0.71 -0.5 0.7 -0.52 0.71 0 -0zm-22.08 9.88l-22.78 -10.51 5.84 -6.68 0.95 -0.27 0.92 -0.28 0.9 -0.28 0.88 -0.29 0.86 -0.3 0.85 -0.3 0.8 -0.3 0.79 -0.31 0.77 -0.32 0.74 -0.32 0.73 -0.33 0.7 -0.33 0.68 -0.33 0.66 -0.34 0.65 -0.35 0.62 -0.35 0.59 -0.35 0.57 -0.35 0.56 -0.37 0.52 -0.35 0.5 -0.36 0.5 -0.37 0.47 -0.37 0.44 -0.37 0.43 -0.37 0.41 -0.37 0.38 -0.37 0.37 -0.38 0.35 -0.38 0.32 -0.36 0.31 -0.38 0.29 -0.37 19.5 18.19 -0.58 0.74 -0.59 0.72 -0.63 0.72 -0.64 0.68 -0.65 0.67 -0.69 0.67 -0.7 0.64 -0.72 0.63 -0.74 0.61 -0.76 0.6 -0.77 0.58 -0.8 0.57 -0.82 0.56 -0.82 0.53 -0.85 0.53 -0.88 0.52 -0.89 0.5 -0.9 0.49 -0.92 0.47 -0.95 0.47 -0.96 0.45 -0.97 0.43 -0.99 0.43 -1 0.41 -1.02 0.41 -1.06 0.4 -1.05 0.38 -1.07 0.37 -1.1 0.36 -1.11 0.35 -1.14 0.34 -1.15 0.33 5.84 -6.68zm-22.78 -10.51l0.97 -5.32 4.87 -1.36 -5.84 6.68zm-105.42 575.94l105.42 -575.94 22.78 10.51 -105.42 575.94 -8.34 7.01 -14.44 -17.52zm22.78 10.51l-1.28 7.01 -7.06 0 8.34 -7.01zm-113.48 -17.52l99.05 0 6.09 24.53 -99.05 0 -14.33 -18.01 8.24 -6.52zm6.09 24.53l-18.55 0 4.22 -18.01 14.33 18.01zm137.62 -558.79l-129.38 552.28 -22.58 -11.49 129.38 -552.28 2.74 -4.61 19.84 16.11zm-50.73 73.61l-21.46 -14.84 0 0 1.36 -3.02 1.37 -2.97 1.39 -2.93 1.41 -2.89 1.43 -2.84 1.44 -2.8 1.46 -2.76 1.48 -2.71 1.5 -2.67 1.52 -2.63 1.53 -2.58 1.55 -2.54 1.57 -2.49 1.59 -2.45 1.61 -2.41 1.63 -2.36 1.64 -2.32 1.66 -2.27 1.68 -2.23 1.7 -2.19 1.72 -2.15 1.74 -2.1 1.75 -2.05 1.77 -2.01 1.79 -1.97 1.81 -1.92 1.83 -1.88 1.85 -1.83 1.86 -1.78 1.89 -1.75 1.9 -1.7 1.93 -1.65 17.1 20.72 -1.71 1.47 -1.7 1.51 -1.68 1.55 -1.67 1.6 -1.66 1.64 -1.64 1.69 -1.63 1.73 -1.62 1.77 -1.6 1.82 -1.59 1.87 -1.58 1.91 -1.57 1.95 -1.55 1.99 -1.53 2.04 -1.53 2.09 -1.51 2.13 -1.49 2.18 -1.48 2.22 -1.47 2.27 -1.46 2.31 -1.44 2.36 -1.43 2.4 -1.41 2.44 -1.4 2.49 -1.38 2.54 -1.37 2.58 -1.36 2.63 -1.34 2.67 -1.32 2.72 -1.31 2.77 -1.3 2.81 -1.28 2.85 0 0zm-39.01 104.13l-22.17 -12.97 0 0 1.16 -3.62 1.16 -3.61 1.17 -3.58 1.17 -3.57 1.18 -3.54 1.18 -3.53 1.19 -3.5 1.2 -3.49 1.2 -3.46 1.21 -3.44 1.21 -3.42 1.22 -3.4 1.22 -3.38 1.23 -3.36 1.24 -3.34 1.24 -3.32 1.24 -3.3 1.25 -3.28 1.25 -3.26 1.26 -3.25 1.26 -3.22 1.27 -3.2 1.28 -3.18 1.28 -3.16 1.28 -3.15 1.29 -3.12 1.3 -3.1 1.3 -3.08 1.31 -3.06 1.31 -3.04 1.32 -3.02 1.32 -3 21.46 14.84 -1.29 2.93 -1.29 2.96 -1.28 2.97 -1.28 3 -1.28 3.02 -1.27 3.04 -1.27 3.06 -1.26 3.08 -1.26 3.1 -1.25 3.12 -1.24 3.14 -1.24 3.16 -1.24 3.18 -1.23 3.2 -1.23 3.23 -1.22 3.24 -1.22 3.27 -1.21 3.28 -1.21 3.3 -1.2 3.33 -1.2 3.35 -1.19 3.37 -1.19 3.39 -1.18 3.41 -1.18 3.43 -1.17 3.45 -1.17 3.47 -1.16 3.49 -1.16 3.51 -1.15 3.53 -1.15 3.55 -1.14 3.57 0 0zm-36.64 119.09l-22.28 -12.62 0 -0 1.15 -3.85 1.15 -3.84 1.14 -3.83 1.15 -3.83 1.15 -3.82 1.14 -3.81 1.15 -3.8 1.14 -3.79 1.15 -3.79 1.15 -3.78 1.15 -3.77 1.15 -3.77 1.15 -3.75 1.15 -3.75 1.15 -3.75 1.15 -3.73 1.15 -3.73 1.15 -3.72 1.15 -3.72 1.15 -3.7 1.15 -3.7 1.15 -3.69 1.15 -3.68 1.15 -3.68 1.15 -3.67 1.15 -3.67 1.15 -3.65 1.15 -3.65 1.15 -3.64 1.15 -3.63 1.15 -3.62 1.15 -3.62 22.17 12.97 -1.15 3.61 -1.15 3.62 -1.15 3.62 -1.15 3.63 -1.15 3.64 -1.15 3.64 -1.15 3.65 -1.15 3.66 -1.15 3.67 -1.15 3.67 -1.15 3.68 -1.14 3.69 -1.15 3.69 -1.14 3.7 -1.14 3.71 -1.14 3.72 -1.15 3.73 -1.15 3.73 -1.14 3.74 -1.15 3.75 -1.14 3.75 -1.15 3.77 -1.14 3.77 -1.14 3.78 -1.14 3.78 -1.14 3.79 -1.14 3.8 -1.14 3.81 -1.14 3.81 -1.14 3.82 -1.14 3.83 -1.14 3.84 0 -0zm-41.7 115.58l-21.51 -14.72 0 0 1.42 -3.29 1.41 -3.3 1.4 -3.32 1.39 -3.34 1.38 -3.35 1.37 -3.37 1.37 -3.39 1.36 -3.4 1.35 -3.42 1.34 -3.44 1.33 -3.46 1.32 -3.47 1.31 -3.49 1.3 -3.51 1.29 -3.52 1.28 -3.54 1.28 -3.55 1.26 -3.57 1.26 -3.59 1.25 -3.61 1.24 -3.62 1.23 -3.64 1.22 -3.66 1.21 -3.67 1.2 -3.69 1.19 -3.7 1.19 -3.73 1.17 -3.74 1.17 -3.75 1.16 -3.77 1.15 -3.79 1.14 -3.81 22.28 12.62 -1.16 3.87 -1.17 3.85 -1.18 3.83 -1.18 3.82 -1.2 3.8 -1.2 3.78 -1.21 3.77 -1.22 3.76 -1.24 3.73 -1.24 3.72 -1.25 3.71 -1.26 3.69 -1.27 3.67 -1.28 3.65 -1.29 3.64 -1.3 3.62 -1.31 3.6 -1.32 3.59 -1.33 3.57 -1.34 3.55 -1.35 3.54 -1.36 3.52 -1.36 3.51 -1.37 3.49 -1.38 3.47 -1.39 3.45 -1.4 3.44 -1.41 3.42 -1.42 3.4 -1.43 3.39 -1.44 3.37 -1.45 3.35 0 0zm-54.83 92.81l-19.17 -18.6 -0 0 1.86 -2.32 1.85 -2.35 1.83 -2.38 1.82 -2.41 1.8 -2.44 1.79 -2.46 1.77 -2.5 1.76 -2.53 1.74 -2.55 1.73 -2.59 1.72 -2.62 1.71 -2.65 1.69 -2.67 1.68 -2.71 1.66 -2.73 1.65 -2.76 1.63 -2.8 1.62 -2.83 1.61 -2.85 1.59 -2.88 1.58 -2.91 1.57 -2.94 1.55 -2.97 1.53 -3.01 1.52 -3.03 1.5 -3.06 1.49 -3.09 1.48 -3.12 1.46 -3.15 1.45 -3.18 1.43 -3.21 1.42 -3.24 21.51 14.72 -1.47 3.36 -1.49 3.33 -1.5 3.29 -1.52 3.27 -1.53 3.24 -1.55 3.2 -1.57 3.19 -1.58 3.15 -1.59 3.12 -1.61 3.1 -1.63 3.06 -1.64 3.03 -1.66 3.01 -1.68 2.98 -1.69 2.94 -1.7 2.91 -1.72 2.89 -1.74 2.85 -1.75 2.83 -1.77 2.8 -1.78 2.77 -1.8 2.74 -1.82 2.71 -1.83 2.68 -1.85 2.65 -1.86 2.62 -1.88 2.59 -1.89 2.56 -1.91 2.53 -1.92 2.5 -1.94 2.47 -1.96 2.44 -0 0zm-92.6 44.07l16.42 -12.09 -13.24 -6.02 2.56 -0.58 2.54 -0.63 2.51 -0.68 2.49 -0.73 2.47 -0.79 2.44 -0.83 2.42 -0.89 2.39 -0.94 2.37 -0.99 2.34 -1.04 2.32 -1.1 2.3 -1.15 2.27 -1.2 2.25 -1.25 2.23 -1.31 2.21 -1.36 2.18 -1.41 2.16 -1.47 2.13 -1.52 2.11 -1.57 2.09 -1.63 2.07 -1.68 2.04 -1.74 2.02 -1.79 2 -1.84 1.98 -1.9 1.95 -1.95 1.93 -2.01 1.91 -2.06 1.88 -2.11 1.86 -2.17 1.84 -2.23 19.17 18.6 -2.02 2.45 -2.05 2.39 -2.08 2.34 -2.11 2.28 -2.14 2.23 -2.17 2.17 -2.2 2.11 -2.23 2.06 -2.26 2 -2.29 1.95 -2.32 1.89 -2.34 1.83 -2.38 1.78 -2.41 1.72 -2.44 1.65 -2.47 1.6 -2.5 1.54 -2.53 1.48 -2.56 1.43 -2.59 1.37 -2.61 1.31 -2.65 1.25 -2.68 1.19 -2.7 1.13 -2.73 1.07 -2.76 1.02 -2.79 0.96 -2.82 0.89 -2.84 0.84 -2.88 0.78 -2.9 0.72 -2.93 0.66 -13.24 -6.02zm13.24 6.02l-7.42 1.59 -5.81 -7.61 13.24 6.02zm-18.51 -46.5l21.69 28.4 -16.42 12.09 -21.69 -28.4 -1.11 -15.66 17.53 3.56zm-16.42 12.09l-6.98 -9.13 5.86 -6.52 1.11 15.66zm22.56 -63.99l22.72 10.84 0 0 -0.43 2.06 -0.45 2.04 -0.49 2.04 -0.51 2.01 -0.54 1.99 -0.57 1.98 -0.6 1.95 -0.63 1.94 -0.66 1.92 -0.68 1.9 -0.71 1.87 -0.74 1.86 -0.77 1.85 -0.8 1.82 -0.83 1.81 -0.86 1.79 -0.88 1.76 -0.91 1.74 -0.94 1.73 -0.97 1.71 -1 1.69 -1.02 1.67 -1.05 1.65 -1.08 1.63 -1.11 1.61 -1.13 1.59 -1.17 1.58 -1.19 1.55 -1.21 1.53 -1.24 1.51 -1.28 1.49 -1.3 1.47 -18.64 -19.22 1.12 -1.27 1.09 -1.28 1.07 -1.3 1.05 -1.32 1.02 -1.33 0.99 -1.34 0.97 -1.36 0.95 -1.38 0.92 -1.39 0.9 -1.41 0.87 -1.42 0.85 -1.44 0.82 -1.45 0.8 -1.47 0.78 -1.48 0.75 -1.5 0.73 -1.51 0.7 -1.53 0.68 -1.55 0.65 -1.56 0.63 -1.58 0.61 -1.6 0.58 -1.61 0.56 -1.63 0.53 -1.64 0.51 -1.66 0.49 -1.67 0.46 -1.7 0.44 -1.72 0.41 -1.72 0.39 -1.75 0.37 -1.76 0 0zm3.79 -64.28l23.1 4.99 0 -0 0.13 2.36 0.11 2.35 0.1 2.34 0.08 2.33 0.06 2.32 0.05 2.3 0.03 2.3 0.02 2.29 -0.01 2.27 -0.02 2.26 -0.04 2.26 -0.05 2.23 -0.07 2.23 -0.09 2.22 -0.1 2.21 -0.12 2.2 -0.14 2.18 -0.15 2.18 -0.17 2.17 -0.19 2.15 -0.21 2.14 -0.22 2.13 -0.24 2.12 -0.26 2.11 -0.28 2.1 -0.29 2.09 -0.31 2.08 -0.33 2.07 -0.34 2.05 -0.36 2.05 -0.38 2.03 -0.39 2.02 -22.72 -10.84 0.36 -1.83 0.34 -1.85 0.32 -1.86 0.31 -1.87 0.3 -1.88 0.28 -1.89 0.27 -1.91 0.25 -1.91 0.23 -1.92 0.22 -1.94 0.2 -1.95 0.19 -1.96 0.17 -1.97 0.16 -1.98 0.14 -1.99 0.13 -2.01 0.11 -2.01 0.09 -2.02 0.08 -2.04 0.06 -2.04 0.05 -2.07 0.04 -2.07 0.02 -2.08 0 -2.1 -0.01 -2.1 -0.03 -2.11 -0.04 -2.13 -0.06 -2.14 -0.08 -2.15 -0.09 -2.17 -0.1 -2.17 -0.12 -2.19 0 -0zm-9.19 -76.1l22.74 1.97 0 -0 0.45 2.61 0.44 2.6 0.43 2.59 0.42 2.59 0.41 2.57 0.41 2.57 0.39 2.56 0.39 2.55 0.37 2.54 0.37 2.53 0.35 2.52 0.34 2.51 0.34 2.51 0.32 2.5 0.32 2.49 0.3 2.48 0.29 2.46 0.28 2.46 0.27 2.45 0.27 2.44 0.25 2.43 0.25 2.43 0.23 2.42 0.22 2.4 0.21 2.4 0.2 2.39 0.19 2.38 0.18 2.37 0.17 2.36 0.16 2.35 0.15 2.34 0.14 2.33 -23.1 -4.99 -0.14 -2.23 -0.14 -2.24 -0.16 -2.25 -0.17 -2.26 -0.17 -2.26 -0.18 -2.28 -0.2 -2.29 -0.2 -2.3 -0.21 -2.31 -0.22 -2.32 -0.23 -2.32 -0.25 -2.34 -0.25 -2.35 -0.26 -2.35 -0.27 -2.36 -0.28 -2.38 -0.29 -2.38 -0.3 -2.39 -0.31 -2.4 -0.32 -2.41 -0.33 -2.43 -0.34 -2.43 -0.35 -2.45 -0.36 -2.45 -0.37 -2.46 -0.38 -2.47 -0.39 -2.48 -0.4 -2.49 -0.41 -2.5 -0.42 -2.5 -0.43 -2.52 -0.44 -2.53 0 -0zm-14.47 -84.33l22.77 2.14 0 0 0.91 5.37 0.91 5.36 0.9 5.34 0.91 5.32 0.9 5.32 0.9 5.29 0.9 5.28 0.9 5.26 0.9 5.25 0.9 5.24 0.9 5.22 0.9 5.21 0.9 5.19 0.9 5.18 0.9 5.17 0.9 5.15 -22.74 -1.97 -0.9 -5.16 -0.9 -5.17 -0.9 -5.19 -0.9 -5.21 -0.9 -5.22 -0.9 -5.23 -0.9 -5.25 -0.9 -5.26 -0.91 -5.28 -0.9 -5.29 -0.91 -5.31 -0.9 -5.32 -0.91 -5.34 -0.91 -5.35 -0.91 -5.36 -0.91 -5.38 0 0zm-11.61 -87.05l23.01 3.99 0 0 0.26 2.66 0.27 2.67 0.28 2.66 0.28 2.66 0.29 2.67 0.29 2.67 0.3 2.66 0.31 2.65 0.31 2.67 0.31 2.67 0.32 2.66 0.33 2.66 0.34 2.66 0.34 2.67 0.34 2.67 0.35 2.66 0.36 2.66 0.36 2.66 0.37 2.67 0.38 2.67 0.38 2.66 0.39 2.67 0.39 2.67 0.4 2.65 0.41 2.67 0.41 2.67 0.42 2.66 0.42 2.66 0.43 2.67 0.43 2.66 0.44 2.66 0.44 2.67 -22.77 -2.14 -0.45 -2.72 -0.45 -2.72 -0.44 -2.73 -0.44 -2.71 -0.43 -2.72 -0.43 -2.72 -0.42 -2.72 -0.41 -2.71 -0.41 -2.73 -0.4 -2.72 -0.4 -2.72 -0.39 -2.73 -0.38 -2.71 -0.38 -2.72 -0.37 -2.72 -0.37 -2.72 -0.36 -2.72 -0.35 -2.72 -0.35 -2.71 -0.34 -2.72 -0.34 -2.72 -0.33 -2.72 -0.32 -2.72 -0.32 -2.71 -0.31 -2.73 -0.31 -2.72 -0.3 -2.72 -0.29 -2.72 -0.29 -2.72 -0.28 -2.72 -0.28 -2.71 -0.27 -2.72 0 0zm22.92 -75.4l-22.24 -12.74 22.62 10.88 -0.27 2.47 -0.25 2.47 -0.23 2.48 -0.21 2.48 -0.2 2.49 -0.18 2.49 -0.17 2.49 -0.15 2.5 -0.13 2.5 -0.12 2.51 -0.1 2.51 -0.08 2.51 -0.07 2.52 -0.05 2.53 -0.04 2.53 -0.02 2.54 0 2.54 0.01 2.55 0.03 2.55 0.05 2.55 0.07 2.56 0.08 2.57 0.1 2.56 0.12 2.57 0.13 2.58 0.15 2.59 0.17 2.59 0.18 2.59 0.2 2.59 0.21 2.61 0.23 2.6 0.25 2.61 -23.01 -3.99 -0.27 -2.77 -0.25 -2.77 -0.23 -2.75 -0.21 -2.76 -0.19 -2.75 -0.17 -2.74 -0.16 -2.74 -0.14 -2.73 -0.12 -2.74 -0.11 -2.73 -0.09 -2.72 -0.07 -2.71 -0.05 -2.72 -0.03 -2.71 -0.02 -2.7 0 -2.7 0.02 -2.7 0.04 -2.69 0.05 -2.68 0.07 -2.68 0.09 -2.68 0.11 -2.67 0.12 -2.66 0.14 -2.66 0.16 -2.66 0.18 -2.66 0.19 -2.64 0.21 -2.64 0.23 -2.63 0.25 -2.63 0.27 -2.63 0.28 -2.62 22.62 10.88zm-23.5 105.56l-22.88 -9.95 0 0 0.58 -3.7 0.59 -3.67 0.6 -3.66 0.62 -3.64 0.63 -3.62 0.64 -3.59 0.65 -3.58 0.66 -3.56 0.67 -3.53 0.68 -3.52 0.69 -3.5 0.7 -3.47 0.71 -3.45 0.73 -3.44 0.74 -3.42 0.75 -3.39 0.76 -3.38 0.77 -3.36 0.78 -3.33 0.79 -3.32 0.81 -3.3 0.81 -3.28 0.83 -3.25 0.84 -3.23 0.85 -3.22 0.86 -3.19 0.87 -3.17 0.88 -3.16 0.89 -3.14 0.91 -3.11 0.92 -3.09 0.93 -3.07 22.24 12.74 -0.9 2.98 -0.89 3 -0.88 3.02 -0.87 3.04 -0.86 3.06 -0.85 3.09 -0.84 3.1 -0.82 3.12 -0.81 3.15 -0.81 3.17 -0.79 3.18 -0.78 3.2 -0.77 3.23 -0.76 3.25 -0.75 3.26 -0.74 3.29 -0.73 3.31 -0.72 3.33 -0.71 3.35 -0.7 3.37 -0.69 3.39 -0.67 3.41 -0.66 3.43 -0.66 3.46 -0.64 3.47 -0.63 3.49 -0.62 3.52 -0.61 3.54 -0.6 3.55 -0.59 3.58 -0.58 3.6 -0.57 3.62 0 0zm-19.18 118.91l-22.84 -10.19 0 -0 0.63 -3.75 0.62 -3.75 0.62 -3.74 0.62 -3.75 0.62 -3.74 0.62 -3.73 0.62 -3.74 0.62 -3.74 0.61 -3.73 0.61 -3.73 0.61 -3.72 0.61 -3.72 0.61 -3.72 0.6 -3.71 0.6 -3.71 0.6 -3.71 0.6 -3.71 0.6 -3.7 0.59 -3.7 0.59 -3.7 0.59 -3.69 0.58 -3.69 0.59 -3.69 0.58 -3.69 0.58 -3.68 0.58 -3.68 0.58 -3.68 0.58 -3.68 0.58 -3.67 0.57 -3.67 0.57 -3.67 0.57 -3.67 22.88 9.95 -0.57 3.67 -0.57 3.68 -0.57 3.68 -0.58 3.68 -0.58 3.68 -0.58 3.68 -0.58 3.69 -0.58 3.69 -0.58 3.69 -0.59 3.7 -0.59 3.7 -0.59 3.71 -0.59 3.71 -0.6 3.71 -0.6 3.71 -0.6 3.71 -0.6 3.71 -0.6 3.72 -0.61 3.73 -0.61 3.72 -0.61 3.73 -0.61 3.73 -0.61 3.73 -0.61 3.74 -0.62 3.74 -0.62 3.74 -0.62 3.75 -0.62 3.74 -0.62 3.75 -0.62 3.76 -0.63 3.76 -0.63 3.76 0 -0zm-23.64 117.57l-22.57 -11.55 0 0 0.83 -3.53 0.82 -3.54 0.82 -3.55 0.81 -3.55 0.8 -3.55 0.8 -3.57 0.79 -3.57 0.78 -3.58 0.78 -3.58 0.77 -3.58 0.77 -3.6 0.76 -3.6 0.75 -3.61 0.75 -3.61 0.74 -3.62 0.73 -3.63 0.73 -3.63 0.72 -3.64 0.71 -3.65 0.7 -3.65 0.7 -3.66 0.69 -3.67 0.69 -3.67 0.68 -3.68 0.68 -3.69 0.67 -3.69 0.66 -3.69 0.65 -3.71 0.65 -3.72 0.64 -3.71 0.64 -3.73 0.63 -3.73 22.84 10.19 -0.63 3.77 -0.64 3.77 -0.65 3.76 -0.66 3.75 -0.66 3.75 -0.67 3.75 -0.68 3.74 -0.68 3.73 -0.69 3.72 -0.69 3.71 -0.7 3.71 -0.71 3.7 -0.71 3.7 -0.73 3.69 -0.73 3.68 -0.74 3.68 -0.74 3.67 -0.75 3.66 -0.76 3.66 -0.76 3.66 -0.77 3.64 -0.77 3.63 -0.78 3.64 -0.79 3.63 -0.79 3.62 -0.8 3.62 -0.81 3.6 -0.81 3.6 -0.83 3.6 -0.83 3.58 -0.83 3.58 -0.84 3.57 0 0zm-37.35 102.97l-20.96 -15.88 0 0 1.4 -2.69 1.38 -2.72 1.36 -2.74 1.34 -2.77 1.33 -2.8 1.31 -2.82 1.29 -2.84 1.27 -2.87 1.25 -2.89 1.23 -2.92 1.22 -2.94 1.2 -2.97 1.18 -2.99 1.16 -3.02 1.14 -3.04 1.12 -3.07 1.11 -3.09 1.09 -3.12 1.07 -3.15 1.05 -3.17 1.03 -3.19 1.02 -3.22 1 -3.25 0.98 -3.27 0.96 -3.29 0.94 -3.32 0.93 -3.34 0.91 -3.37 0.89 -3.4 0.87 -3.42 0.86 -3.45 0.83 -3.47 22.57 11.55 -0.87 3.6 -0.89 3.57 -0.9 3.55 -0.93 3.53 -0.94 3.5 -0.96 3.48 -0.98 3.45 -1 3.43 -1.02 3.4 -1.04 3.38 -1.06 3.36 -1.08 3.33 -1.1 3.31 -1.12 3.28 -1.14 3.26 -1.16 3.23 -1.17 3.21 -1.2 3.18 -1.22 3.16 -1.23 3.13 -1.25 3.11 -1.27 3.08 -1.29 3.06 -1.31 3.04 -1.33 3 -1.35 2.98 -1.37 2.96 -1.39 2.93 -1.41 2.91 -1.43 2.88 -1.45 2.86 -1.47 2.83 0 0zm-60.82 73.65l-16.49 -21.21 -0 0 2.12 -1.63 2.09 -1.66 2.07 -1.7 2.05 -1.73 2.02 -1.76 2 -1.79 1.98 -1.83 1.96 -1.86 1.93 -1.89 1.91 -1.92 1.89 -1.96 1.87 -1.99 1.84 -2.02 1.82 -2.05 1.8 -2.09 1.77 -2.12 1.75 -2.15 1.72 -2.18 1.7 -2.22 1.68 -2.25 1.66 -2.28 1.64 -2.32 1.61 -2.34 1.59 -2.38 1.57 -2.42 1.54 -2.44 1.52 -2.48 1.5 -2.51 1.48 -2.55 1.45 -2.57 1.43 -2.61 1.41 -2.65 20.96 15.88 -1.5 2.82 -1.53 2.79 -1.55 2.76 -1.58 2.72 -1.6 2.69 -1.63 2.66 -1.66 2.62 -1.68 2.59 -1.71 2.56 -1.74 2.53 -1.76 2.49 -1.78 2.46 -1.81 2.42 -1.84 2.38 -1.87 2.36 -1.89 2.32 -1.91 2.29 -1.94 2.25 -1.96 2.22 -1.99 2.18 -2.01 2.15 -2.04 2.12 -2.07 2.08 -2.09 2.05 -2.12 2.01 -2.14 1.98 -2.17 1.94 -2.19 1.91 -2.22 1.88 -2.25 1.84 -2.27 1.81 -2.3 1.77 -0 0zm-94.1 28.64l-6.09 -24.53 0 0 3.16 -0.02 3.12 -0.08 3.09 -0.13 3.05 -0.18 3.02 -0.22 2.98 -0.27 2.94 -0.32 2.91 -0.37 2.87 -0.42 2.84 -0.47 2.8 -0.52 2.77 -0.57 2.73 -0.62 2.69 -0.67 2.66 -0.72 2.62 -0.77 2.59 -0.81 2.56 -0.87 2.53 -0.91 2.49 -0.97 2.46 -1.01 2.42 -1.06 2.39 -1.11 2.36 -1.16 2.32 -1.21 2.29 -1.25 2.25 -1.31 2.23 -1.36 2.19 -1.41 2.16 -1.46 2.13 -1.5 2.1 -1.55 16.49 21.21 -2.38 1.76 -2.42 1.71 -2.45 1.65 -2.49 1.6 -2.53 1.54 -2.57 1.49 -2.6 1.43 -2.64 1.37 -2.67 1.31 -2.71 1.26 -2.75 1.2 -2.78 1.15 -2.82 1.09 -2.86 1.03 -2.9 0.98 -2.93 0.92 -2.97 0.87 -3 0.81 -3.04 0.76 -3.07 0.69 -3.1 0.64 -3.14 0.58 -3.17 0.53 -3.21 0.47 -3.25 0.42 -3.28 0.36 -3.31 0.3 -3.35 0.25 -3.38 0.19 -3.41 0.14 -3.45 0.08 -3.48 0.03 0 0zm-62.46 -9.66l1.54 -23.18 -0.01 -0 1.47 0.5 1.48 0.48 1.51 0.47 1.52 0.46 1.54 0.44 1.56 0.43 1.56 0.41 1.58 0.4 1.6 0.38 1.6 0.36 1.63 0.35 1.66 0.34 1.66 0.32 1.66 0.3 1.7 0.29 1.7 0.27 1.72 0.25 1.74 0.24 1.75 0.22 1.77 0.21 1.78 0.19 1.79 0.17 1.82 0.16 1.83 0.14 1.84 0.12 1.86 0.11 1.88 0.09 1.89 0.08 1.9 0.06 1.93 0.04 1.94 0.03 1.95 0.01 6.09 24.53 -2.13 -0.01 -2.12 -0.03 -2.1 -0.04 -2.09 -0.07 -2.08 -0.08 -2.07 -0.1 -2.05 -0.12 -2.05 -0.14 -2.04 -0.16 -2.02 -0.17 -2.01 -0.19 -2 -0.21 -1.99 -0.23 -1.98 -0.25 -1.96 -0.27 -1.96 -0.29 -1.95 -0.31 -1.93 -0.33 -1.94 -0.35 -1.91 -0.37 -1.89 -0.38 -1.89 -0.4 -1.89 -0.43 -1.86 -0.44 -1.86 -0.46 -1.85 -0.49 -1.83 -0.5 -1.82 -0.52 -1.82 -0.54 -1.8 -0.56 -1.79 -0.58 -1.78 -0.61 -0.01 -0zm-48.99 -26.8l10.87 -17.86 -0 -0.01 0.99 0.81 1.01 0.8 1.03 0.8 1.04 0.78 1.05 0.77 1.08 0.77 1.09 0.76 1.09 0.74 1.12 0.74 1.13 0.73 1.15 0.72 1.16 0.71 1.18 0.71 1.2 0.7 1.21 0.68 1.23 0.68 1.24 0.67 1.27 0.66 1.28 0.65 1.29 0.64 1.31 0.63 1.33 0.63 1.34 0.61 1.36 0.6 1.38 0.59 1.39 0.59 1.41 0.58 1.42 0.56 1.44 0.55 1.46 0.55 1.48 0.54 1.49 0.53 -1.54 23.18 -1.73 -0.61 -1.72 -0.62 -1.7 -0.64 -1.7 -0.65 -1.69 -0.67 -1.67 -0.68 -1.65 -0.69 -1.64 -0.71 -1.63 -0.73 -1.62 -0.74 -1.6 -0.75 -1.59 -0.77 -1.58 -0.79 -1.56 -0.8 -1.55 -0.81 -1.55 -0.83 -1.52 -0.84 -1.52 -0.86 -1.5 -0.88 -1.48 -0.88 -1.48 -0.91 -1.46 -0.92 -1.45 -0.93 -1.43 -0.95 -1.43 -0.97 -1.4 -0.98 -1.38 -0.99 -1.39 -1.02 -1.36 -1.03 -1.34 -1.04 -1.34 -1.06 -1.32 -1.07 -0 -0.01zm-33.61 -37.87l18.34 -9.31 0 0 0.62 0.99 0.63 0.98 0.65 0.98 0.66 0.97 0.67 0.97 0.67 0.95 0.7 0.97 0.71 0.96 0.72 0.94 0.73 0.94 0.74 0.93 0.76 0.94 0.77 0.93 0.78 0.92 0.8 0.93 0.81 0.92 0.81 0.9 0.83 0.9 0.86 0.92 0.86 0.9 0.86 0.89 0.89 0.9 0.9 0.89 0.91 0.88 0.92 0.88 0.95 0.88 0.95 0.87 0.96 0.86 0.99 0.87 1.01 0.87 1.01 0.85 1.02 0.85 -10.87 17.86 -1.27 -1.05 -1.25 -1.06 -1.22 -1.05 -1.22 -1.07 -1.22 -1.09 -1.2 -1.1 -1.18 -1.1 -1.17 -1.11 -1.16 -1.12 -1.14 -1.13 -1.12 -1.13 -1.13 -1.16 -1.11 -1.16 -1.07 -1.15 -1.08 -1.17 -1.07 -1.19 -1.04 -1.18 -1.03 -1.19 -1.02 -1.21 -1 -1.22 -0.99 -1.22 -0.98 -1.24 -0.96 -1.25 -0.95 -1.25 -0.92 -1.25 -0.91 -1.26 -0.91 -1.29 -0.88 -1.27 -0.87 -1.29 -0.85 -1.29 -0.85 -1.3 -0.82 -1.31 0 0zm-18.17 -42.04l22.33 0 0 0 0.26 1.02 0.28 1.04 0.28 1.03 0.3 1.02 0.3 1.02 0.32 1.02 0.33 1.02 0.34 1.03 0.36 1.03 0.36 1.01 0.38 1.02 0.39 1.03 0.4 1.02 0.41 1.01 0.43 1.02 0.44 1.02 0.45 1.02 0.46 1.03 0.46 1.01 0.48 1.01 0.5 1.03 0.51 1.03 0.52 1.01 0.53 1.03 0.55 1.02 0.56 1.03 0.57 1.02 0.58 1.02 0.59 1.03 0.61 1.03 0.62 1.03 0.63 1.02 -18.34 9.31 -0.79 -1.28 -0.77 -1.28 -0.76 -1.29 -0.75 -1.29 -0.74 -1.3 -0.72 -1.3 -0.7 -1.29 -0.69 -1.29 -0.68 -1.3 -0.67 -1.31 -0.65 -1.3 -0.63 -1.3 -0.62 -1.32 -0.61 -1.33 -0.58 -1.3 -0.58 -1.31 -0.56 -1.31 -0.55 -1.31 -0.54 -1.33 -0.52 -1.33 -0.5 -1.31 -0.49 -1.32 -0.48 -1.34 -0.45 -1.32 -0.44 -1.32 -0.43 -1.33 -0.42 -1.34 -0.4 -1.34 -0.38 -1.34 -0.37 -1.33 -0.35 -1.33 -0.34 -1.34 0 0zm-3.18 -36.49l23.04 8.61 0 0 -0.07 0.81 -0.06 0.83 -0.05 0.82 -0.04 0.82 -0.03 0.84 -0.03 0.84 -0.02 0.83 -0 0.82 0.01 0.85 0.01 0.86 0.03 0.84 0.03 0.85 0.04 0.85 0.05 0.87 0.06 0.87 0.07 0.86 0.08 0.87 0.09 0.88 0.1 0.87 0.11 0.88 0.12 0.9 0.13 0.88 0.14 0.89 0.15 0.91 0.16 0.9 0.17 0.9 0.18 0.92 0.18 0.91 0.2 0.93 0.2 0.92 0.22 0.92 0.23 0.94 -22.33 0 -0.29 -1.18 -0.28 -1.2 -0.27 -1.19 -0.25 -1.17 -0.25 -1.19 -0.23 -1.17 -0.22 -1.17 -0.21 -1.18 -0.19 -1.16 -0.18 -1.17 -0.17 -1.16 -0.16 -1.15 -0.15 -1.16 -0.13 -1.16 -0.12 -1.14 -0.11 -1.15 -0.09 -1.15 -0.08 -1.13 -0.07 -1.12 -0.06 -1.14 -0.04 -1.13 -0.03 -1.13 -0.02 -1.11 -0.01 -1.11 0.01 -1.13 0.02 -1.11 0.03 -1.09 0.04 -1.09 0.06 -1.1 0.07 -1.1 0.08 -1.08 0.09 -1.09 0 0zm8.32 -30.85l21.2 15.41 0 0 -0.32 0.67 -0.31 0.68 -0.31 0.68 -0.3 0.69 -0.29 0.7 -0.28 0.69 -0.28 0.71 -0.27 0.71 -0.26 0.71 -0.25 0.72 -0.25 0.72 -0.24 0.73 -0.23 0.73 -0.22 0.74 -0.22 0.76 -0.2 0.73 -0.2 0.75 -0.19 0.76 -0.18 0.76 -0.18 0.77 -0.16 0.77 -0.16 0.78 -0.15 0.77 -0.15 0.8 -0.14 0.79 -0.13 0.8 -0.12 0.81 -0.11 0.81 -0.11 0.82 -0.1 0.82 -0.09 0.82 -0.08 0.83 -23.04 -8.61 0.1 -1.06 0.11 -1.05 0.12 -1.04 0.13 -1.04 0.14 -1.03 0.16 -1.03 0.16 -1.02 0.17 -1.02 0.18 -0.99 0.2 -1.02 0.2 -1 0.21 -0.99 0.22 -0.98 0.23 -0.98 0.25 -0.98 0.25 -0.97 0.27 -0.98 0.27 -0.94 0.28 -0.95 0.3 -0.95 0.3 -0.93 0.32 -0.93 0.32 -0.92 0.34 -0.92 0.34 -0.91 0.35 -0.91 0.37 -0.9 0.38 -0.89 0.39 -0.89 0.4 -0.88 0.41 -0.88 0.42 -0.87 0 0zm20.03 -22.67l15.43 21.94 0 0 -0.58 0.38 -0.58 0.39 -0.56 0.39 -0.55 0.4 -0.55 0.41 -0.53 0.41 -0.53 0.43 -0.52 0.43 -0.5 0.43 -0.51 0.45 -0.49 0.45 -0.48 0.46 -0.47 0.47 -0.47 0.49 -0.45 0.49 -0.44 0.49 -0.44 0.51 -0.44 0.53 -0.42 0.51 -0.41 0.53 -0.41 0.54 -0.4 0.55 -0.39 0.56 -0.38 0.57 -0.38 0.59 -0.37 0.58 -0.35 0.58 -0.36 0.62 -0.34 0.61 -0.33 0.61 -0.33 0.65 -0.32 0.64 -21.2 -15.41 0.44 -0.89 0.44 -0.86 0.47 -0.88 0.48 -0.86 0.48 -0.83 0.51 -0.85 0.52 -0.83 0.52 -0.8 0.54 -0.8 0.55 -0.79 0.56 -0.78 0.57 -0.76 0.59 -0.75 0.6 -0.75 0.6 -0.71 0.62 -0.71 0.65 -0.72 0.65 -0.69 0.65 -0.68 0.67 -0.67 0.68 -0.66 0.69 -0.64 0.7 -0.63 0.72 -0.63 0.73 -0.61 0.73 -0.59 0.76 -0.59 0.76 -0.56 0.77 -0.56 0.79 -0.55 0.79 -0.53 0.8 -0.52 0 0zm32.19 -8.39l6.09 24.53 0 0 -0.88 0.01 -0.88 0.02 -0.86 0.03 -0.83 0.04 -0.83 0.05 -0.84 0.07 -0.81 0.07 -0.8 0.09 -0.79 0.1 -0.78 0.11 -0.77 0.13 -0.76 0.13 -0.75 0.15 -0.74 0.15 -0.72 0.17 -0.71 0.18 -0.7 0.19 -0.71 0.2 -0.68 0.21 -0.67 0.22 -0.66 0.23 -0.65 0.24 -0.65 0.25 -0.63 0.27 -0.64 0.28 -0.62 0.28 -0.6 0.29 -0.61 0.31 -0.6 0.32 -0.57 0.32 -0.57 0.34 -0.57 0.35 -15.43 -21.94 0.83 -0.52 0.85 -0.51 0.87 -0.5 0.87 -0.46 0.88 -0.45 0.91 -0.44 0.91 -0.42 0.91 -0.4 0.93 -0.39 0.94 -0.37 0.95 -0.35 0.97 -0.34 0.98 -0.32 0.99 -0.3 0.98 -0.28 1 -0.27 1.02 -0.25 1.03 -0.23 1.04 -0.22 1.05 -0.2 1.05 -0.19 1.05 -0.17 1.08 -0.16 1.08 -0.14 1.09 -0.12 1.11 -0.1 1.1 -0.09 1.12 -0.07 1.15 -0.06 1.14 -0.04 1.14 -0.02 1.16 -0.01 0 0zm30.72 6.5l-4.52 21.95 -0.01 -0.01 -0.46 -0.22 -0.47 -0.21 -0.48 -0.21 -0.5 -0.21 -0.5 -0.2 -0.5 -0.19 -0.52 -0.19 -0.54 -0.18 -0.56 -0.18 -0.53 -0.16 -0.57 -0.16 -0.57 -0.16 -0.59 -0.15 -0.62 -0.15 -0.59 -0.14 -0.62 -0.13 -0.65 -0.13 -0.64 -0.12 -0.64 -0.11 -0.67 -0.1 -0.69 -0.1 -0.69 -0.09 -0.7 -0.08 -0.71 -0.07 -0.7 -0.06 -0.73 -0.05 -0.76 -0.05 -0.76 -0.04 -0.76 -0.03 -0.78 -0.02 -0.79 -0.01 -0.8 -0.01 -6.09 -24.53 1.03 0.01 1.02 0.02 1.02 0.03 1.01 0.04 1.01 0.05 0.99 0.06 1 0.07 1.01 0.09 0.99 0.1 0.98 0.11 0.98 0.13 0.97 0.14 0.97 0.15 0.99 0.17 0.97 0.18 0.95 0.19 0.96 0.2 0.97 0.22 0.93 0.23 0.95 0.25 0.94 0.26 0.93 0.27 0.96 0.3 0.91 0.3 0.92 0.31 0.92 0.33 0.93 0.35 0.91 0.37 0.9 0.37 0.91 0.4 0.9 0.41 0.9 0.43 -0.01 -0.01zm21 12.63l-10.11 18.47 0.11 0.08 -0.35 -0.27 -0.38 -0.28 -0.4 -0.29 -0.39 -0.28 -0.39 -0.28 -0.38 -0.26 -0.43 -0.29 -0.43 -0.3 -0.4 -0.27 -0.45 -0.3 -0.46 -0.3 -0.42 -0.27 -0.44 -0.28 -0.49 -0.3 -0.48 -0.3 -0.5 -0.3 -0.47 -0.28 -0.49 -0.29 -0.52 -0.3 -0.49 -0.28 -0.54 -0.3 -0.52 -0.29 -0.53 -0.29 -0.55 -0.3 -0.55 -0.29 -0.57 -0.3 -0.55 -0.28 -0.59 -0.3 -0.58 -0.29 -0.58 -0.29 -0.62 -0.31 -0.59 -0.29 4.52 -21.95 0.75 0.37 0.7 0.35 0.74 0.37 0.72 0.37 0.7 0.36 0.72 0.38 0.69 0.37 0.7 0.37 0.69 0.37 0.69 0.38 0.69 0.38 0.66 0.37 0.7 0.4 0.65 0.38 0.67 0.39 0.67 0.4 0.63 0.38 0.64 0.39 0.62 0.39 0.65 0.41 0.65 0.42 0.61 0.4 0.6 0.39 0.64 0.43 0.59 0.4 0.58 0.4 0.63 0.44 0.6 0.43 0.59 0.42 0.56 0.41 0.57 0.42 0.59 0.44 0.11 0.08zm-0.11 -0.08l0.11 0.08 -0.19 -0.15 0.08 0.06zm13.05 36.72l-6.09 -24.53 -5.22 18.23 -0.31 -0.41 -0.32 -0.41 -0.32 -0.41 -0.31 -0.39 -0.34 -0.42 -0.33 -0.4 -0.34 -0.4 -0.34 -0.4 -0.32 -0.37 -0.35 -0.39 -0.35 -0.39 -0.35 -0.38 -0.35 -0.38 -0.36 -0.38 -0.37 -0.38 -0.35 -0.35 -0.37 -0.37 -0.39 -0.38 -0.36 -0.35 -0.38 -0.36 -0.38 -0.36 -0.37 -0.34 -0.41 -0.37 -0.39 -0.35 -0.38 -0.33 -0.4 -0.35 -0.42 -0.36 -0.39 -0.33 -0.42 -0.34 -0.42 -0.34 -0.41 -0.32 -0.43 -0.34 10.11 -18.47 0.63 0.49 0.65 0.52 0.63 0.51 0.63 0.51 0.63 0.53 0.6 0.51 0.61 0.53 0.63 0.55 0.6 0.54 0.58 0.53 0.61 0.56 0.59 0.55 0.58 0.56 0.6 0.58 0.56 0.55 0.57 0.57 0.58 0.59 0.56 0.58 0.56 0.59 0.55 0.59 0.54 0.6 0.54 0.6 0.54 0.61 0.55 0.63 0.53 0.62 0.52 0.62 0.52 0.62 0.5 0.61 0.52 0.65 0.5 0.64 0.5 0.64 0.49 0.65 -5.22 18.23zm5.22 -18.23l13.76 18.23 -18.99 0 5.22 -18.23zm-19.6 30.15l-22.04 -13.35 0 -0 0.47 -1.31 0.5 -1.28 0.53 -1.25 0.55 -1.22 0.59 -1.2 0.62 -1.15 0.65 -1.12 0.69 -1.09 0.72 -1.06 0.75 -1.02 0.78 -0.98 0.82 -0.95 0.85 -0.9 0.89 -0.87 0.93 -0.83 0.94 -0.77 0.99 -0.74 1.02 -0.69 1.04 -0.64 1.09 -0.61 1.12 -0.56 1.14 -0.5 1.16 -0.45 1.18 -0.41 1.22 -0.36 1.24 -0.31 1.26 -0.26 1.29 -0.21 1.31 -0.17 1.32 -0.11 1.33 -0.07 1.36 -0.02 6.09 24.53 -0.67 0.01 -0.65 0.03 -0.62 0.05 -0.6 0.07 -0.58 0.1 -0.56 0.11 -0.54 0.13 -0.52 0.16 -0.52 0.18 -0.5 0.2 -0.48 0.21 -0.46 0.23 -0.45 0.25 -0.46 0.29 -0.44 0.3 -0.43 0.32 -0.43 0.36 -0.41 0.37 -0.41 0.4 -0.41 0.43 -0.4 0.46 -0.39 0.49 -0.38 0.52 -0.38 0.55 -0.37 0.58 -0.37 0.63 -0.35 0.66 -0.34 0.68 -0.33 0.74 -0.32 0.77 -0.31 0.8 -0.3 0.85 0 -0zm-0.43 32.6l-22.33 0 0 0 -0.38 -1.56 -0.35 -1.55 -0.32 -1.54 -0.3 -1.55 -0.27 -1.53 -0.25 -1.53 -0.22 -1.53 -0.2 -1.5 -0.18 -1.51 -0.15 -1.51 -0.12 -1.49 -0.1 -1.48 -0.07 -1.47 -0.04 -1.48 -0.02 -1.47 0.01 -1.45 0.03 -1.43 0.06 -1.44 0.09 -1.43 0.11 -1.41 0.14 -1.4 0.16 -1.39 0.19 -1.39 0.22 -1.38 0.24 -1.36 0.27 -1.35 0.3 -1.35 0.32 -1.33 0.34 -1.3 0.37 -1.31 0.4 -1.3 0.42 -1.28 22.04 13.35 -0.3 0.92 -0.28 0.91 -0.26 0.92 -0.25 0.95 -0.23 0.93 -0.2 0.93 -0.19 0.95 -0.17 0.96 -0.15 0.95 -0.13 0.96 -0.12 0.98 -0.1 0.98 -0.08 0.99 -0.06 0.99 -0.04 0.99 -0.02 1.01 -0.01 1.02 0.01 1.02 0.03 1.02 0.05 1.04 0.07 1.05 0.09 1.06 0.1 1.06 0.13 1.07 0.15 1.1 0.16 1.08 0.18 1.1 0.2 1.12 0.22 1.11 0.24 1.14 0.26 1.15 0.28 1.15 0 0zm19.02 32.6l-13.69 15.26 0 0 -1.28 -1.33 -1.25 -1.34 -1.23 -1.35 -1.21 -1.37 -1.17 -1.37 -1.16 -1.4 -1.13 -1.4 -1.11 -1.41 -1.09 -1.44 -1.05 -1.43 -1.02 -1.45 -1 -1.47 -0.97 -1.47 -0.94 -1.47 -0.91 -1.49 -0.89 -1.51 -0.87 -1.52 -0.83 -1.52 -0.8 -1.53 -0.78 -1.55 -0.74 -1.55 -0.71 -1.54 -0.69 -1.58 -0.65 -1.57 -0.63 -1.58 -0.6 -1.6 -0.56 -1.57 -0.54 -1.6 -0.51 -1.61 -0.47 -1.6 -0.45 -1.61 -0.42 -1.62 22.33 0 0.28 1.1 0.3 1.09 0.32 1.09 0.34 1.07 0.36 1.06 0.39 1.08 0.39 1.04 0.42 1.04 0.43 1.04 0.45 1.02 0.48 1.04 0.49 1.03 0.51 1.01 0.54 1.02 0.55 1.01 0.57 1 0.59 1 0.62 1 0.64 1.01 0.66 1 0.68 0.99 0.7 1 0.73 1 0.74 0.98 0.77 0.99 0.79 0.99 0.81 0.98 0.85 1 0.86 0.98 0.89 0.99 0.92 0.99 0.94 0.98 0 0zm38.19 13.82l6.09 24.53 0 0 -2.07 -0.02 -2.06 -0.06 -2.04 -0.1 -2.02 -0.14 -2.01 -0.19 -1.99 -0.22 -1.99 -0.27 -1.96 -0.31 -1.95 -0.35 -1.93 -0.4 -1.93 -0.45 -1.91 -0.49 -1.89 -0.54 -1.88 -0.59 -1.85 -0.63 -1.84 -0.68 -1.84 -0.74 -1.82 -0.78 -1.79 -0.83 -1.76 -0.88 -1.76 -0.93 -1.75 -0.99 -1.71 -1.03 -1.69 -1.08 -1.67 -1.14 -1.65 -1.19 -1.61 -1.24 -1.58 -1.27 -1.56 -1.33 -1.52 -1.38 -1.49 -1.42 -1.46 -1.46 13.69 -15.26 0.81 0.81 0.82 0.78 0.84 0.75 0.85 0.73 0.88 0.71 0.89 0.68 0.9 0.65 0.93 0.63 0.95 0.61 0.99 0.6 1 0.56 1.03 0.55 1.07 0.53 1.1 0.51 1.12 0.48 1.14 0.45 1.19 0.44 1.22 0.42 1.24 0.39 1.28 0.36 1.31 0.34 1.34 0.31 1.38 0.29 1.41 0.26 1.45 0.23 1.48 0.2 1.51 0.17 1.55 0.14 1.58 0.11 1.61 0.08 1.64 0.05 1.67 0.02 0 0zm57.12 -30.82l19.62 18.03 0 0 -1.7 2.25 -1.73 2.18 -1.76 2.11 -1.79 2.05 -1.83 1.98 -1.86 1.91 -1.89 1.84 -1.93 1.78 -1.96 1.71 -2 1.64 -2.03 1.57 -2.06 1.5 -2.11 1.43 -2.13 1.36 -2.17 1.29 -2.2 1.22 -2.23 1.14 -2.26 1.07 -2.3 1 -2.33 0.93 -2.36 0.86 -2.4 0.78 -2.43 0.71 -2.46 0.63 -2.49 0.56 -2.52 0.49 -2.55 0.41 -2.57 0.33 -2.61 0.26 -2.64 0.19 -2.66 0.11 -2.69 0.04 -6.09 -24.53 2.13 -0.03 2.1 -0.09 2.07 -0.15 2.06 -0.21 2.03 -0.26 2 -0.32 1.98 -0.38 1.96 -0.44 1.94 -0.5 1.91 -0.55 1.89 -0.62 1.87 -0.68 1.85 -0.74 1.83 -0.8 1.81 -0.86 1.79 -0.92 1.77 -0.98 1.75 -1.04 1.73 -1.1 1.7 -1.16 1.69 -1.23 1.67 -1.29 1.65 -1.36 1.63 -1.42 1.61 -1.48 1.6 -1.55 1.57 -1.61 1.55 -1.68 1.53 -1.75 1.51 -1.82 1.49 -1.88 1.47 -1.95 0 0zm40.12 -85.36l22.25 12.7 0 0 -1.05 3.43 -1.07 3.39 -1.09 3.35 -1.11 3.31 -1.13 3.27 -1.14 3.23 -1.16 3.2 -1.18 3.16 -1.19 3.12 -1.21 3.08 -1.23 3.05 -1.25 3.01 -1.27 2.96 -1.29 2.93 -1.31 2.89 -1.33 2.85 -1.34 2.82 -1.37 2.78 -1.38 2.74 -1.4 2.7 -1.42 2.66 -1.44 2.63 -1.45 2.58 -1.47 2.55 -1.5 2.51 -1.51 2.47 -1.53 2.43 -1.55 2.39 -1.57 2.35 -1.59 2.32 -1.61 2.28 -1.63 2.24 -19.62 -18.03 1.5 -2.06 1.48 -2.1 1.47 -2.14 1.45 -2.18 1.43 -2.22 1.42 -2.25 1.4 -2.29 1.39 -2.33 1.37 -2.37 1.36 -2.41 1.34 -2.45 1.33 -2.49 1.31 -2.53 1.3 -2.57 1.28 -2.6 1.26 -2.65 1.25 -2.69 1.23 -2.72 1.22 -2.77 1.2 -2.81 1.18 -2.84 1.17 -2.88 1.15 -2.93 1.14 -2.96 1.12 -3 1.1 -3.04 1.09 -3.08 1.07 -3.12 1.05 -3.16 1.04 -3.2 1.02 -3.24 1.01 -3.28 0 0zm26.88 -119.85l22.86 10.08 0 0 -0.69 4.22 -0.7 4.2 -0.71 4.17 -0.72 4.14 -0.73 4.12 -0.75 4.1 -0.76 4.07 -0.77 4.04 -0.78 4.02 -0.79 4 -0.8 3.96 -0.81 3.94 -0.82 3.92 -0.83 3.89 -0.84 3.87 -0.85 3.83 -0.86 3.81 -0.88 3.79 -0.89 3.76 -0.9 3.74 -0.91 3.71 -0.92 3.69 -0.93 3.66 -0.94 3.64 -0.95 3.61 -0.96 3.58 -0.97 3.56 -0.98 3.53 -1 3.51 -1.01 3.48 -1.02 3.46 -1.03 3.43 -22.25 -12.7 1 -3.34 0.99 -3.37 0.98 -3.39 0.97 -3.42 0.96 -3.44 0.95 -3.47 0.94 -3.49 0.93 -3.52 0.92 -3.55 0.91 -3.58 0.9 -3.6 0.89 -3.63 0.88 -3.66 0.87 -3.68 0.86 -3.7 0.84 -3.73 0.84 -3.76 0.83 -3.78 0.81 -3.81 0.8 -3.83 0.79 -3.87 0.78 -3.89 0.77 -3.91 0.76 -3.94 0.75 -3.97 0.74 -4 0.73 -4.02 0.72 -4.05 0.71 -4.08 0.7 -4.1 0.69 -4.12 0.68 -4.15 0 0zm22.87 -133.65l22.79 10.46 0 0 -0.75 4.13 -0.74 4.14 -0.74 4.14 -0.74 4.14 -0.74 4.14 -0.73 4.15 -0.74 4.15 -0.73 4.15 -0.73 4.15 -0.73 4.15 -0.72 4.15 -0.72 4.16 -0.72 4.16 -0.71 4.16 -0.72 4.17 -0.71 4.16 -0.71 4.16 -0.71 4.17 -0.71 4.17 -0.7 4.17 -0.7 4.18 -0.7 4.17 -0.7 4.18 -0.69 4.18 -0.7 4.18 -0.69 4.18 -0.69 4.18 -0.69 4.18 -0.68 4.19 -0.68 4.19 -0.68 4.19 -0.68 4.19 -22.86 -10.08 0.68 -4.21 0.68 -4.2 0.68 -4.21 0.69 -4.2 0.69 -4.2 0.69 -4.19 0.69 -4.19 0.7 -4.19 0.7 -4.18 0.7 -4.19 0.7 -4.19 0.71 -4.18 0.7 -4.18 0.71 -4.18 0.71 -4.17 0.71 -4.18 0.72 -4.18 0.72 -4.17 0.72 -4.17 0.72 -4.17 0.72 -4.16 0.73 -4.17 0.73 -4.17 0.73 -4.16 0.73 -4.16 0.74 -4.16 0.74 -4.16 0.74 -4.16 0.74 -4.15 0.74 -4.15 0.74 -4.15 0.75 -4.15 0 0zm27.71 -125.74l22.44 12.06 -0 0 -0.96 3.65 -0.95 3.66 -0.95 3.68 -0.94 3.69 -0.93 3.71 -0.93 3.72 -0.92 3.74 -0.91 3.75 -0.91 3.77 -0.9 3.78 -0.89 3.8 -0.89 3.81 -0.88 3.82 -0.87 3.84 -0.87 3.86 -0.86 3.87 -0.85 3.89 -0.85 3.9 -0.84 3.92 -0.83 3.93 -0.82 3.95 -0.82 3.96 -0.81 3.98 -0.8 3.99 -0.8 4 -0.79 4.02 -0.78 4.04 -0.78 4.05 -0.77 4.06 -0.76 4.08 -0.76 4.09 -0.75 4.11 -22.79 -10.46 0.76 -4.16 0.76 -4.14 0.77 -4.13 0.78 -4.11 0.79 -4.1 0.79 -4.08 0.8 -4.07 0.81 -4.05 0.81 -4.04 0.82 -4.03 0.83 -4.01 0.83 -3.99 0.84 -3.98 0.85 -3.97 0.86 -3.95 0.86 -3.93 0.87 -3.92 0.88 -3.91 0.88 -3.89 0.89 -3.88 0.9 -3.86 0.9 -3.85 0.91 -3.84 0.92 -3.82 0.92 -3.8 0.93 -3.79 0.94 -3.77 0.95 -3.76 0.96 -3.74 0.96 -3.73 0.97 -3.72 0.98 -3.7 -0 0zm53.33 -78.52l-1.29 -23.99 10.62 20.77 -1.55 2.3 -1.53 2.33 -1.51 2.37 -1.49 2.42 -1.47 2.45 -1.46 2.5 -1.43 2.54 -1.42 2.58 -1.4 2.62 -1.38 2.66 -1.36 2.7 -1.35 2.74 -1.33 2.79 -1.3 2.83 -1.29 2.87 -1.27 2.91 -1.25 2.95 -1.23 2.99 -1.21 3.04 -1.19 3.07 -1.17 3.12 -1.15 3.16 -1.13 3.2 -1.12 3.24 -1.1 3.28 -1.08 3.32 -1.06 3.37 -1.04 3.41 -1.02 3.45 -1 3.49 -0.98 3.53 -0.96 3.57 -22.44 -12.06 1 -3.73 1.03 -3.68 1.05 -3.64 1.06 -3.6 1.09 -3.56 1.11 -3.52 1.13 -3.49 1.15 -3.44 1.17 -3.4 1.19 -3.37 1.22 -3.32 1.24 -3.29 1.26 -3.24 1.28 -3.2 1.3 -3.16 1.33 -3.13 1.34 -3.08 1.36 -3.04 1.39 -3.01 1.41 -2.96 1.43 -2.92 1.45 -2.88 1.47 -2.84 1.5 -2.81 1.52 -2.76 1.54 -2.72 1.56 -2.68 1.58 -2.64 1.61 -2.6 1.63 -2.56 1.65 -2.52 1.67 -2.48 10.62 20.77zm-1.29 -23.99l21.55 4.79 -10.94 15.98 -10.62 -20.77zm-48.38 9.25l2.3 -22.91 -0 0 1.34 0.51 1.35 0.5 1.35 0.49 1.35 0.49 1.36 0.49 1.38 0.48 1.38 0.48 1.39 0.47 1.38 0.46 1.4 0.46 1.41 0.45 1.41 0.45 1.42 0.44 1.43 0.44 1.42 0.43 1.43 0.43 1.45 0.42 1.46 0.42 1.45 0.41 1.47 0.41 1.48 0.41 1.48 0.4 1.48 0.39 1.49 0.39 1.51 0.39 1.49 0.38 1.51 0.37 1.53 0.37 1.51 0.36 1.52 0.35 1.54 0.35 1.54 0.34 1.29 23.99 -1.64 -0.37 -1.63 -0.37 -1.64 -0.38 -1.63 -0.39 -1.6 -0.39 -1.62 -0.4 -1.62 -0.41 -1.59 -0.41 -1.6 -0.42 -1.6 -0.42 -1.58 -0.43 -1.57 -0.43 -1.57 -0.44 -1.57 -0.45 -1.56 -0.45 -1.55 -0.45 -1.56 -0.46 -1.55 -0.47 -1.53 -0.47 -1.53 -0.48 -1.52 -0.49 -1.51 -0.49 -1.52 -0.5 -1.52 -0.51 -1.5 -0.51 -1.49 -0.51 -1.49 -0.52 -1.49 -0.53 -1.48 -0.54 -1.48 -0.54 -1.47 -0.55 -1.46 -0.55 -0 0zm-45.16 -15.3l0.46 -23.54 -0 0 1.51 0.45 1.5 0.46 1.5 0.46 1.5 0.46 1.5 0.46 1.5 0.47 1.48 0.47 1.49 0.47 1.5 0.48 1.49 0.48 1.48 0.49 1.47 0.48 1.47 0.49 1.49 0.49 1.48 0.5 1.46 0.49 1.47 0.5 1.47 0.51 1.46 0.51 1.46 0.51 1.46 0.51 1.45 0.51 1.45 0.51 1.46 0.52 1.45 0.53 1.44 0.52 1.44 0.53 1.44 0.53 1.45 0.54 1.43 0.54 1.42 0.54 1.43 0.54 -2.3 22.91 -1.37 -0.52 -1.38 -0.52 -1.37 -0.52 -1.37 -0.51 -1.38 -0.51 -1.38 -0.51 -1.39 -0.5 -1.39 -0.5 -1.38 -0.5 -1.4 -0.5 -1.4 -0.49 -1.4 -0.49 -1.41 -0.49 -1.4 -0.49 -1.4 -0.48 -1.41 -0.48 -1.43 -0.48 -1.4 -0.47 -1.41 -0.47 -1.43 -0.47 -1.43 -0.47 -1.43 -0.46 -1.42 -0.46 -1.42 -0.46 -1.43 -0.45 -1.45 -0.46 -1.43 -0.45 -1.45 -0.45 -1.45 -0.45 -1.45 -0.44 -1.45 -0.44 -1.45 -0.43 -0 0zm-50.84 -11.99l-2.16 -24.16 -0 0 1.81 0.33 1.8 0.34 1.78 0.34 1.78 0.34 1.77 0.35 1.77 0.35 1.75 0.36 1.74 0.36 1.74 0.37 1.73 0.37 1.72 0.37 1.7 0.38 1.7 0.38 1.7 0.39 1.69 0.39 1.67 0.39 1.67 0.4 1.65 0.4 1.64 0.4 1.64 0.41 1.64 0.42 1.63 0.42 1.61 0.42 1.61 0.42 1.59 0.43 1.59 0.43 1.58 0.44 1.57 0.44 1.56 0.44 1.55 0.45 1.54 0.45 1.54 0.45 -0.46 23.54 -1.44 -0.43 -1.45 -0.42 -1.46 -0.42 -1.47 -0.42 -1.48 -0.41 -1.49 -0.41 -1.5 -0.41 -1.52 -0.41 -1.51 -0.4 -1.53 -0.4 -1.53 -0.4 -1.54 -0.39 -1.55 -0.39 -1.58 -0.39 -1.57 -0.38 -1.58 -0.38 -1.6 -0.38 -1.6 -0.37 -1.6 -0.37 -1.62 -0.36 -1.64 -0.36 -1.64 -0.36 -1.65 -0.35 -1.66 -0.35 -1.67 -0.34 -1.68 -0.34 -1.69 -0.34 -1.7 -0.34 -1.71 -0.33 -1.73 -0.33 -1.73 -0.32 -1.74 -0.32 -0 0zm-63.49 -5.02l-6.09 -24.53 0 0 2.35 0.01 2.34 0.02 2.32 0.03 2.31 0.04 2.29 0.05 2.27 0.06 2.25 0.07 2.24 0.08 2.22 0.09 2.21 0.1 2.19 0.11 2.18 0.12 2.15 0.13 2.14 0.14 2.14 0.15 2.11 0.16 2.09 0.17 2.09 0.18 2.07 0.2 2.05 0.2 2.03 0.22 2.02 0.22 2.01 0.24 1.98 0.25 1.97 0.26 1.96 0.27 1.95 0.28 1.93 0.29 1.91 0.3 1.9 0.31 1.88 0.32 1.87 0.34 2.16 24.16 -1.7 -0.31 -1.72 -0.29 -1.74 -0.29 -1.76 -0.28 -1.77 -0.27 -1.79 -0.26 -1.82 -0.25 -1.83 -0.24 -1.86 -0.23 -1.86 -0.22 -1.88 -0.21 -1.91 -0.2 -1.92 -0.19 -1.93 -0.18 -1.96 -0.17 -1.98 -0.16 -1.99 -0.15 -2 -0.15 -2.03 -0.13 -2.05 -0.13 -2.07 -0.11 -2.08 -0.1 -2.1 -0.09 -2.12 -0.08 -2.14 -0.07 -2.15 -0.07 -2.18 -0.05 -2.19 -0.05 -2.21 -0.03 -2.23 -0.03 -2.24 -0.02 -2.26 -0.01 0 0zm-74.48 15.6l-14.27 -22.61 -0.05 0.03 2.1 -1.09 2.14 -1.06 2.17 -1.02 2.19 -0.98 2.23 -0.95 2.26 -0.91 2.3 -0.88 2.32 -0.84 2.35 -0.81 2.39 -0.77 2.42 -0.74 2.45 -0.7 2.48 -0.67 2.51 -0.64 2.55 -0.59 2.56 -0.56 2.61 -0.53 2.63 -0.49 2.66 -0.46 2.69 -0.42 2.73 -0.39 2.76 -0.35 2.78 -0.32 2.81 -0.29 2.85 -0.25 2.87 -0.22 2.91 -0.19 2.94 -0.15 2.96 -0.12 2.99 -0.08 3.03 -0.05 3.05 -0.02 6.09 24.53 -2.83 0.02 -2.8 0.05 -2.77 0.08 -2.73 0.11 -2.7 0.14 -2.67 0.17 -2.63 0.2 -2.6 0.23 -2.57 0.26 -2.54 0.29 -2.5 0.32 -2.47 0.35 -2.44 0.39 -2.41 0.41 -2.37 0.44 -2.34 0.47 -2.31 0.51 -2.27 0.53 -2.24 0.56 -2.21 0.59 -2.18 0.63 -2.15 0.65 -2.11 0.68 -2.08 0.71 -2.05 0.74 -2.02 0.77 -1.98 0.8 -1.96 0.83 -1.93 0.86 -1.89 0.89 -1.86 0.92 -1.83 0.95 -0.05 0.03zm0.05 -0.03l-0.05 0.03 -0.13 0.07 0.18 -0.09zm-44.96 40.18l-20.25 -17.11 -0.02 0.04 1.13 -1.77 1.16 -1.74 1.2 -1.73 1.22 -1.7 1.26 -1.69 1.29 -1.66 1.31 -1.63 1.35 -1.62 1.38 -1.6 1.4 -1.57 1.43 -1.55 1.46 -1.53 1.49 -1.51 1.52 -1.48 1.55 -1.47 1.58 -1.44 1.61 -1.42 1.64 -1.4 1.67 -1.37 1.7 -1.35 1.72 -1.33 1.75 -1.31 1.78 -1.28 1.81 -1.26 1.84 -1.24 1.87 -1.22 1.89 -1.19 1.92 -1.17 1.96 -1.15 1.98 -1.13 2.01 -1.1 2.04 -1.09 14.27 22.61 -1.84 0.98 -1.81 1 -1.78 1.01 -1.75 1.03 -1.72 1.05 -1.7 1.07 -1.67 1.09 -1.64 1.1 -1.61 1.12 -1.58 1.14 -1.56 1.16 -1.52 1.17 -1.5 1.19 -1.47 1.21 -1.44 1.23 -1.41 1.25 -1.38 1.26 -1.36 1.28 -1.33 1.3 -1.3 1.31 -1.28 1.34 -1.25 1.35 -1.22 1.37 -1.19 1.38 -1.16 1.4 -1.14 1.43 -1.11 1.43 -1.08 1.45 -1.06 1.48 -1.03 1.49 -1 1.51 -0.98 1.52 -0.02 0.04zm0.02 -0.04l-0.02 0.04 -0.22 0.35 0.25 -0.39zm-18.87 54.98l-23 -9 -0 0.03 0.25 -2.18 0.28 -2.17 0.31 -2.15 0.33 -2.14 0.36 -2.13 0.39 -2.11 0.41 -2.1 0.44 -2.09 0.47 -2.08 0.5 -2.06 0.53 -2.05 0.55 -2.03 0.58 -2.02 0.61 -2.01 0.64 -2 0.66 -1.98 0.69 -1.97 0.72 -1.95 0.74 -1.94 0.77 -1.93 0.8 -1.91 0.83 -1.89 0.86 -1.89 0.88 -1.87 0.91 -1.85 0.93 -1.84 0.96 -1.83 0.99 -1.81 1.01 -1.79 1.05 -1.79 1.07 -1.76 1.1 -1.75 20.25 17.11 -0.97 1.55 -0.94 1.55 -0.91 1.56 -0.9 1.58 -0.87 1.58 -0.84 1.6 -0.82 1.62 -0.79 1.62 -0.77 1.63 -0.74 1.64 -0.72 1.65 -0.7 1.67 -0.67 1.67 -0.65 1.69 -0.63 1.7 -0.6 1.71 -0.58 1.72 -0.55 1.73 -0.53 1.74 -0.5 1.76 -0.48 1.76 -0.45 1.78 -0.43 1.79 -0.41 1.79 -0.38 1.81 -0.36 1.82 -0.33 1.83 -0.31 1.85 -0.29 1.86 -0.27 1.87 -0.24 1.87 -0.21 1.89 -0 0.03zm0 -0.03l-0 0.03 -0.02 0.19 0.02 -0.22zm3.82 59.1l-22.33 0 0 0 -0.51 -2.1 -0.49 -2.1 -0.46 -2.11 -0.43 -2.1 -0.41 -2.1 -0.39 -2.11 -0.37 -2.12 -0.34 -2.11 -0.32 -2.12 -0.29 -2.13 -0.27 -2.12 -0.25 -2.12 -0.22 -2.12 -0.2 -2.13 -0.18 -2.12 -0.15 -2.14 -0.13 -2.13 -0.11 -2.13 -0.08 -2.14 -0.06 -2.13 -0.03 -2.13 -0.01 -2.14 0.02 -2.14 0.04 -2.14 0.06 -2.14 0.08 -2.14 0.11 -2.14 0.13 -2.14 0.15 -2.15 0.18 -2.15 0.2 -2.14 0.22 -2.14 23 9 -0.2 1.91 -0.18 1.91 -0.16 1.89 -0.14 1.89 -0.11 1.9 -0.09 1.89 -0.07 1.88 -0.05 1.88 -0.03 1.88 -0.01 1.87 0.01 1.87 0.03 1.87 0.05 1.86 0.07 1.85 0.09 1.86 0.11 1.85 0.13 1.84 0.15 1.84 0.17 1.84 0.19 1.83 0.21 1.83 0.23 1.82 0.25 1.82 0.27 1.82 0.29 1.82 0.31 1.8 0.33 1.8 0.35 1.81 0.37 1.8 0.39 1.78 0.41 1.78 0.43 1.78 0 0zm16.05 40.92l-19.25 7.76 0.02 0.04 -0.8 -1.45 -0.78 -1.44 -0.77 -1.46 -0.76 -1.46 -0.74 -1.46 -0.74 -1.49 -0.72 -1.48 -0.7 -1.47 -0.7 -1.49 -0.68 -1.49 -0.67 -1.5 -0.66 -1.51 -0.64 -1.5 -0.63 -1.51 -0.62 -1.53 -0.6 -1.51 -0.6 -1.53 -0.58 -1.53 -0.57 -1.54 -0.55 -1.54 -0.54 -1.53 -0.53 -1.57 -0.51 -1.55 -0.5 -1.55 -0.49 -1.56 -0.48 -1.58 -0.46 -1.58 -0.45 -1.56 -0.44 -1.58 -0.43 -1.59 -0.42 -1.59 -0.4 -1.59 22.33 0 0.34 1.36 0.35 1.36 0.36 1.35 0.38 1.34 0.39 1.36 0.39 1.34 0.4 1.31 0.42 1.33 0.43 1.33 0.44 1.31 0.44 1.29 0.46 1.31 0.46 1.3 0.48 1.29 0.49 1.28 0.5 1.28 0.51 1.28 0.51 1.26 0.53 1.26 0.54 1.27 0.54 1.25 0.56 1.25 0.57 1.25 0.57 1.23 0.59 1.24 0.59 1.23 0.6 1.2 0.62 1.23 0.62 1.21 0.64 1.21 0.65 1.21 0.65 1.19 0.02 0.04zm-0.02 -0.04l0.02 0.04 -0.36 -0.65 0.34 0.62zm25.35 33.12l-12.57 16.36 -0.07 -0.06 -1.18 -1.14 -1.15 -1.13 -1.16 -1.15 -1.16 -1.18 -1.12 -1.17 -1.12 -1.19 -1.1 -1.19 -1.1 -1.21 -1.09 -1.23 -1.07 -1.23 -1.07 -1.25 -1.05 -1.25 -1.04 -1.27 -1.03 -1.28 -1.02 -1.29 -1 -1.29 -0.99 -1.31 -0.98 -1.32 -0.97 -1.33 -0.96 -1.34 -0.95 -1.35 -0.93 -1.37 -0.92 -1.36 -0.91 -1.38 -0.9 -1.4 -0.88 -1.4 -0.88 -1.42 -0.87 -1.42 -0.85 -1.43 -0.84 -1.45 -0.82 -1.45 -0.81 -1.46 19.25 -7.76 0.67 1.19 0.67 1.18 0.68 1.17 0.69 1.16 0.69 1.14 0.7 1.14 0.71 1.13 0.72 1.11 0.73 1.11 0.74 1.11 0.75 1.09 0.75 1.07 0.76 1.07 0.77 1.05 0.78 1.05 0.79 1.04 0.8 1.04 0.8 1.02 0.81 1.01 0.82 1 0.83 0.99 0.84 0.98 0.86 0.98 0.85 0.95 0.87 0.95 0.88 0.95 0.88 0.93 0.9 0.93 0.89 0.9 0.91 0.91 0.93 0.92 0.92 0.89 -0.07 -0.06zm-12.57 16.36l-0.07 -0.06 0.14 0.13 -0.07 -0.07zm46.31 6.05l-3.69 22.33 0 0 -1.46 -0.66 -1.47 -0.68 -1.44 -0.69 -1.43 -0.7 -1.44 -0.73 -1.42 -0.73 -1.41 -0.74 -1.42 -0.77 -1.4 -0.78 -1.38 -0.79 -1.39 -0.81 -1.38 -0.83 -1.36 -0.83 -1.36 -0.86 -1.35 -0.87 -1.34 -0.88 -1.33 -0.89 -1.33 -0.91 -1.31 -0.93 -1.3 -0.93 -1.3 -0.96 -1.29 -0.97 -1.27 -0.98 -1.26 -1 -1.25 -1.01 -1.25 -1.03 -1.24 -1.04 -1.22 -1.05 -1.22 -1.06 -1.21 -1.07 -1.2 -1.1 -1.19 -1.11 12.57 -16.36 0.93 0.87 0.93 0.85 0.94 0.85 0.95 0.84 0.96 0.82 0.96 0.81 0.97 0.8 0.99 0.8 0.99 0.78 1 0.77 1 0.75 1 0.74 1.03 0.74 1.03 0.73 1.03 0.71 1.05 0.71 1.06 0.7 1.06 0.68 1.07 0.67 1.09 0.67 1.09 0.65 1.09 0.64 1.12 0.64 1.11 0.62 1.11 0.6 1.15 0.61 1.15 0.59 1.14 0.57 1.17 0.57 1.18 0.56 1.17 0.54 1.19 0.54 0 0zm42.24 8.36l6.09 24.53 0 0 -1.72 -0.01 -1.73 -0.03 -1.72 -0.05 -1.7 -0.07 -1.71 -0.09 -1.7 -0.11 -1.69 -0.13 -1.68 -0.15 -1.67 -0.17 -1.67 -0.19 -1.66 -0.21 -1.66 -0.23 -1.65 -0.25 -1.64 -0.27 -1.64 -0.3 -1.63 -0.32 -1.63 -0.34 -1.61 -0.36 -1.61 -0.38 -1.6 -0.4 -1.6 -0.42 -1.6 -0.45 -1.58 -0.46 -1.57 -0.49 -1.58 -0.51 -1.57 -0.53 -1.55 -0.55 -1.55 -0.57 -1.55 -0.6 -1.53 -0.62 -1.52 -0.64 -1.52 -0.66 3.69 -22.33 1.15 0.5 1.17 0.49 1.17 0.47 1.17 0.45 1.19 0.44 1.21 0.43 1.21 0.41 1.22 0.39 1.24 0.38 1.25 0.37 1.25 0.35 1.26 0.33 1.29 0.32 1.29 0.31 1.31 0.29 1.31 0.27 1.32 0.26 1.33 0.24 1.35 0.22 1.36 0.21 1.37 0.19 1.39 0.18 1.39 0.16 1.41 0.14 1.42 0.13 1.42 0.11 1.43 0.09 1.45 0.07 1.47 0.06 1.47 0.04 1.48 0.02 1.5 0.01 0 0zm26.36 -5.25l14.05 22.72 -0 0 -0.9 0.44 -0.92 0.43 -0.93 0.41 -0.92 0.39 -0.95 0.39 -0.97 0.37 -0.96 0.35 -0.99 0.34 -1 0.33 -1 0.31 -1.01 0.29 -1.04 0.29 -1.04 0.27 -1.03 0.25 -1.07 0.24 -1.07 0.22 -1.07 0.21 -1.09 0.2 -1.11 0.18 -1.11 0.17 -1.12 0.16 -1.14 0.14 -1.15 0.13 -1.13 0.11 -1.17 0.1 -1.18 0.08 -1.18 0.07 -1.19 0.06 -1.2 0.05 -1.22 0.03 -1.23 0.02 -1.23 0.01 -6.09 -24.53 1.02 -0.01 1 -0.02 0.98 -0.03 0.99 -0.04 0.97 -0.05 0.96 -0.06 0.93 -0.07 0.92 -0.08 0.93 -0.09 0.9 -0.1 0.88 -0.11 0.88 -0.12 0.87 -0.13 0.84 -0.14 0.84 -0.15 0.84 -0.16 0.81 -0.17 0.8 -0.18 0.8 -0.19 0.77 -0.2 0.76 -0.21 0.76 -0.22 0.75 -0.23 0.72 -0.23 0.71 -0.25 0.72 -0.26 0.69 -0.26 0.68 -0.28 0.69 -0.29 0.65 -0.29 0.65 -0.3 0.64 -0.31 -0 0zm15.53 -12.77l20.1 17.34 -0.01 0.01 -0.49 0.72 -0.5 0.71 -0.52 0.71 -0.52 0.68 -0.54 0.68 -0.56 0.68 -0.56 0.65 -0.58 0.65 -0.59 0.63 -0.6 0.63 -0.62 0.63 -0.63 0.6 -0.64 0.59 -0.65 0.58 -0.66 0.57 -0.69 0.58 -0.68 0.55 -0.68 0.54 -0.71 0.54 -0.71 0.52 -0.74 0.53 -0.74 0.51 -0.75 0.5 -0.76 0.49 -0.77 0.49 -0.79 0.48 -0.78 0.46 -0.81 0.47 -0.82 0.45 -0.81 0.44 -0.83 0.44 -0.85 0.43 -14.05 -22.72 0.67 -0.34 0.66 -0.35 0.66 -0.36 0.64 -0.35 0.62 -0.35 0.62 -0.37 0.6 -0.37 0.59 -0.37 0.57 -0.37 0.56 -0.38 0.55 -0.38 0.53 -0.38 0.53 -0.39 0.51 -0.39 0.51 -0.4 0.49 -0.4 0.46 -0.39 0.46 -0.41 0.46 -0.41 0.44 -0.41 0.43 -0.42 0.41 -0.41 0.41 -0.43 0.4 -0.43 0.38 -0.43 0.38 -0.44 0.35 -0.43 0.35 -0.44 0.35 -0.45 0.32 -0.44 0.32 -0.45 0.31 -0.46 -0.01 0.01zm6.36 -16.71l22.95 9.43 -0.01 0.09 -0.13 0.84 -0.13 0.81 -0.15 0.85 -0.16 0.84 -0.16 0.8 -0.17 0.81 -0.19 0.82 -0.2 0.81 -0.21 0.8 -0.22 0.8 -0.23 0.79 -0.24 0.8 -0.25 0.79 -0.26 0.76 -0.27 0.79 -0.29 0.79 -0.29 0.74 -0.31 0.77 -0.32 0.76 -0.32 0.75 -0.34 0.76 -0.34 0.74 -0.35 0.73 -0.37 0.73 -0.38 0.73 -0.39 0.73 -0.4 0.7 -0.41 0.71 -0.43 0.71 -0.42 0.69 -0.44 0.7 -0.45 0.69 -20.1 -17.34 0.32 -0.5 0.31 -0.5 0.31 -0.51 0.29 -0.49 0.29 -0.51 0.29 -0.52 0.27 -0.5 0.27 -0.51 0.26 -0.52 0.25 -0.52 0.24 -0.52 0.23 -0.51 0.23 -0.53 0.22 -0.52 0.2 -0.52 0.21 -0.54 0.19 -0.51 0.18 -0.52 0.18 -0.55 0.17 -0.53 0.16 -0.52 0.15 -0.53 0.15 -0.54 0.14 -0.54 0.13 -0.54 0.12 -0.53 0.12 -0.55 0.11 -0.56 0.1 -0.53 0.09 -0.53 0.09 -0.57 0.08 -0.55 -0.01 0.09zm22.95 9.43l-0.01 0.09 -0.02 0.17 0.03 -0.26zm-23.97 -27.43l22.33 0 -0 -0 0.21 0.86 0.2 0.88 0.19 0.88 0.18 0.85 0.17 0.88 0.16 0.85 0.15 0.88 0.14 0.88 0.13 0.85 0.11 0.85 0.11 0.88 0.1 0.87 0.09 0.87 0.07 0.87 0.06 0.85 0.06 0.85 0.05 0.85 0.04 0.87 0.03 0.87 0.02 0.87 0.01 0.86 -0.01 0.84 -0.02 0.84 -0.02 0.86 -0.04 0.84 -0.04 0.86 -0.06 0.85 -0.06 0.83 -0.08 0.85 -0.08 0.83 -0.09 0.85 -0.11 0.83 -22.95 -9.43 0.07 -0.58 0.06 -0.57 0.06 -0.59 0.05 -0.57 0.04 -0.59 0.04 -0.57 0.03 -0.56 0.02 -0.58 0.02 -0.56 0.01 -0.58 0 -0.58 0 -0.56 -0.01 -0.55 -0.02 -0.55 -0.03 -0.55 -0.03 -0.57 -0.04 -0.57 -0.04 -0.57 -0.05 -0.55 -0.05 -0.55 -0.06 -0.55 -0.07 -0.54 -0.08 -0.57 -0.08 -0.57 -0.09 -0.54 -0.09 -0.54 -0.1 -0.57 -0.1 -0.54 -0.12 -0.57 -0.11 -0.54 -0.13 -0.54 -0.13 -0.56 -0 -0zm-16.02 -23.79l9.42 -18.99 -0.09 -0.07 1.34 0.99 1.32 1.02 1.31 1.06 1.27 1.07 1.25 1.1 1.23 1.13 1.21 1.16 1.17 1.18 1.15 1.2 1.13 1.24 1.09 1.25 1.06 1.28 1.03 1.29 1.01 1.33 0.98 1.35 0.93 1.35 0.91 1.38 0.88 1.4 0.84 1.41 0.82 1.45 0.78 1.46 0.74 1.47 0.7 1.47 0.68 1.49 0.64 1.51 0.61 1.53 0.57 1.53 0.53 1.52 0.51 1.55 0.47 1.56 0.44 1.56 0.41 1.57 -22.33 0 -0.26 -0.99 -0.27 -0.97 -0.29 -0.94 -0.3 -0.92 -0.32 -0.92 -0.33 -0.88 -0.34 -0.85 -0.36 -0.84 -0.38 -0.83 -0.39 -0.82 -0.4 -0.79 -0.41 -0.77 -0.42 -0.75 -0.45 -0.75 -0.45 -0.73 -0.47 -0.71 -0.5 -0.72 -0.5 -0.68 -0.51 -0.67 -0.55 -0.68 -0.55 -0.67 -0.58 -0.66 -0.58 -0.64 -0.62 -0.64 -0.64 -0.64 -0.65 -0.62 -0.68 -0.63 -0.7 -0.62 -0.73 -0.61 -0.74 -0.59 -0.78 -0.6 -0.8 -0.59 -0.09 -0.07zm0.09 0.07l-0.04 -0.03 -0.05 -0.04 0.09 0.07zm-43.25 -2.31l11.47 -17.35 -12.51 -2.81 1.7 -0.76 1.7 -0.71 1.69 -0.66 1.69 -0.61 1.68 -0.56 1.68 -0.52 1.69 -0.47 1.68 -0.41 1.67 -0.36 1.68 -0.31 1.68 -0.26 1.68 -0.2 1.68 -0.15 1.69 -0.09 1.69 -0.03 1.69 0.03 1.7 0.09 1.69 0.15 1.7 0.21 1.71 0.28 1.7 0.35 1.69 0.41 1.7 0.49 1.69 0.56 1.69 0.63 1.67 0.7 1.66 0.77 1.65 0.84 1.62 0.9 1.61 0.97 1.6 1.05 1.55 1.1 -9.42 18.99 -0.64 -0.45 -0.62 -0.4 -0.64 -0.39 -0.66 -0.37 -0.65 -0.33 -0.67 -0.31 -0.68 -0.29 -0.7 -0.26 -0.73 -0.24 -0.75 -0.21 -0.79 -0.19 -0.8 -0.17 -0.82 -0.14 -0.86 -0.11 -0.9 -0.08 -0.92 -0.05 -0.95 -0.02 -0.99 0.02 -1.02 0.06 -1.05 0.09 -1.08 0.13 -1.11 0.17 -1.14 0.21 -1.17 0.26 -1.2 0.3 -1.22 0.34 -1.25 0.39 -1.28 0.43 -1.3 0.47 -1.33 0.52 -1.35 0.57 -1.38 0.61 -12.51 -2.81zm12.51 2.81l-6.04 2.77 -6.47 -5.58 12.51 2.81zm-25.7 -27.19l22.58 1.12 0 -0 0.1 0.47 0.09 0.42 0.1 0.43 0.11 0.44 0.1 0.36 0.11 0.37 0.11 0.35 0.1 0.3 0.11 0.31 0.12 0.33 0.1 0.27 0.09 0.23 0.1 0.23 0.09 0.21 0.09 0.19 0.08 0.17 0.09 0.17 0.08 0.15 0.07 0.12 0.06 0.1 0.03 0.05 0.05 0.07 0.07 0.1 0.02 0.03 0.03 0.03 -0.01 -0.01 0.03 0.03 0.02 0.02 -0.03 -0.03 0.01 0.01 -0.02 -0.02 -0.02 -0.01 -11.47 17.35 -0.69 -0.62 -0.68 -0.64 -0.64 -0.64 -0.68 -0.7 -0.61 -0.67 -0.59 -0.68 -0.61 -0.75 -0.57 -0.73 -0.55 -0.75 -0.49 -0.7 -0.51 -0.76 -0.5 -0.79 -0.46 -0.77 -0.44 -0.77 -0.41 -0.76 -0.4 -0.76 -0.39 -0.78 -0.37 -0.79 -0.35 -0.79 -0.33 -0.79 -0.32 -0.81 -0.3 -0.8 -0.27 -0.76 -0.28 -0.8 -0.27 -0.84 -0.25 -0.8 -0.23 -0.81 -0.23 -0.84 -0.2 -0.79 -0.2 -0.82 -0.19 -0.85 -0.18 -0.82 0 -0zm1.38 -26.95l22.24 12.75 0 0 -0.17 0.56 -0.16 0.56 -0.14 0.53 -0.14 0.53 -0.13 0.54 -0.13 0.55 -0.1 0.51 -0.1 0.52 -0.09 0.52 -0.08 0.49 -0.07 0.51 -0.06 0.48 -0.05 0.5 -0.05 0.49 -0.04 0.47 -0.03 0.49 -0.03 0.48 -0.02 0.47 -0.01 0.45 0 0.44 0.01 0.46 0.02 0.46 0.02 0.43 0.03 0.43 0.04 0.45 0.05 0.45 0.05 0.44 0.06 0.42 0.06 0.42 0.07 0.44 0.07 0.41 0.09 0.43 -22.58 -1.12 -0.17 -0.87 -0.16 -0.89 -0.14 -0.86 -0.13 -0.88 -0.11 -0.88 -0.1 -0.86 -0.08 -0.86 -0.07 -0.85 -0.06 -0.88 -0.04 -0.88 -0.03 -0.85 -0.01 -0.85 0 -0.87 0.02 -0.87 0.03 -0.84 0.04 -0.83 0.06 -0.83 0.07 -0.85 0.08 -0.83 0.09 -0.83 0.11 -0.84 0.12 -0.82 0.14 -0.84 0.15 -0.81 0.16 -0.82 0.18 -0.83 0.18 -0.79 0.19 -0.8 0.21 -0.83 0.22 -0.82 0.23 -0.8 0.24 -0.8 0 0zm15.27 -23.07l17.46 20.41 -0.1 0.09 -0.5 0.44 -0.49 0.44 -0.48 0.45 -0.47 0.45 -0.44 0.44 -0.44 0.46 -0.44 0.46 -0.4 0.45 -0.41 0.47 -0.4 0.47 -0.39 0.47 -0.37 0.46 -0.35 0.46 -0.35 0.48 -0.34 0.47 -0.32 0.48 -0.32 0.48 -0.31 0.5 -0.3 0.49 -0.28 0.47 -0.27 0.49 -0.26 0.5 -0.25 0.49 -0.23 0.49 -0.23 0.5 -0.22 0.51 -0.21 0.51 -0.2 0.5 -0.19 0.5 -0.18 0.5 -0.17 0.51 -0.16 0.52 -22.24 -12.75 0.27 -0.84 0.28 -0.83 0.3 -0.83 0.31 -0.83 0.32 -0.82 0.34 -0.8 0.35 -0.79 0.36 -0.79 0.38 -0.79 0.4 -0.78 0.41 -0.76 0.43 -0.77 0.44 -0.77 0.45 -0.74 0.45 -0.73 0.47 -0.73 0.5 -0.73 0.51 -0.71 0.51 -0.7 0.54 -0.71 0.55 -0.69 0.55 -0.68 0.56 -0.67 0.58 -0.66 0.61 -0.67 0.61 -0.64 0.61 -0.64 0.65 -0.65 0.64 -0.62 0.65 -0.61 0.67 -0.61 0.69 -0.6 -0.1 0.09zm17.46 20.41l-0.04 0.04 -0.06 0.05 0.1 -0.09zm15.81 -30.99l6.09 24.53 0 0 -0.97 0.01 -0.95 0.02 -0.93 0.04 -0.9 0.05 -0.9 0.07 -0.88 0.07 -0.84 0.09 -0.85 0.1 -0.82 0.12 -0.78 0.13 -0.79 0.15 -0.76 0.15 -0.73 0.17 -0.72 0.18 -0.7 0.19 -0.69 0.21 -0.67 0.21 -0.64 0.22 -0.63 0.24 -0.62 0.25 -0.6 0.26 -0.58 0.27 -0.56 0.28 -0.56 0.3 -0.53 0.3 -0.51 0.31 -0.5 0.32 -0.48 0.33 -0.47 0.34 -0.46 0.36 -0.44 0.37 -0.43 0.37 -17.46 -20.41 0.78 -0.68 0.8 -0.65 0.81 -0.62 0.83 -0.61 0.86 -0.59 0.87 -0.56 0.9 -0.54 0.91 -0.52 0.91 -0.49 0.94 -0.47 0.96 -0.45 0.98 -0.42 0.99 -0.4 1.01 -0.38 1.03 -0.36 1.04 -0.33 1.05 -0.31 1.07 -0.29 1.09 -0.27 1.11 -0.25 1.12 -0.22 1.12 -0.21 1.16 -0.19 1.16 -0.16 1.16 -0.15 1.2 -0.13 1.2 -0.1 1.21 -0.09 1.24 -0.07 1.24 -0.05 1.26 -0.03 1.27 -0.01 0 0zm64.52 28.39l-13.85 15.09 0 0 -1.15 -1.18 -1.16 -1.14 -1.17 -1.09 -1.19 -1.06 -1.19 -1.01 -1.2 -0.97 -1.21 -0.93 -1.21 -0.89 -1.24 -0.86 -1.25 -0.82 -1.26 -0.78 -1.28 -0.75 -1.29 -0.71 -1.31 -0.68 -1.33 -0.64 -1.34 -0.61 -1.37 -0.57 -1.39 -0.54 -1.4 -0.5 -1.45 -0.47 -1.46 -0.43 -1.48 -0.4 -1.51 -0.37 -1.53 -0.32 -1.56 -0.29 -1.59 -0.26 -1.61 -0.22 -1.64 -0.18 -1.66 -0.14 -1.69 -0.1 -1.72 -0.06 -1.75 -0.02 -6.09 -24.53 2.22 0.03 2.21 0.08 2.21 0.13 2.2 0.18 2.18 0.24 2.18 0.29 2.15 0.35 2.16 0.4 2.15 0.46 2.13 0.51 2.13 0.57 2.11 0.63 2.09 0.68 2.09 0.75 2.07 0.8 2.06 0.86 2.05 0.92 2.02 0.98 2.01 1.03 1.99 1.09 1.97 1.15 1.96 1.21 1.93 1.26 1.9 1.31 1.89 1.38 1.86 1.43 1.84 1.49 1.81 1.53 1.77 1.58 1.76 1.64 1.72 1.68 1.7 1.73 0 0zm34.9 63.39l-22.33 0 0 0 -0.46 -1.78 -0.48 -1.75 -0.51 -1.74 -0.53 -1.73 -0.55 -1.71 -0.57 -1.68 -0.6 -1.66 -0.62 -1.65 -0.64 -1.62 -0.67 -1.61 -0.69 -1.59 -0.71 -1.57 -0.74 -1.55 -0.76 -1.53 -0.79 -1.51 -0.82 -1.52 -0.83 -1.48 -0.86 -1.47 -0.88 -1.46 -0.91 -1.45 -0.92 -1.42 -0.95 -1.41 -0.99 -1.41 -1 -1.38 -1.03 -1.37 -1.05 -1.36 -1.07 -1.34 -1.1 -1.33 -1.14 -1.34 -1.15 -1.31 -1.18 -1.29 -1.22 -1.29 13.85 -15.09 1.59 1.68 1.57 1.72 1.53 1.74 1.49 1.74 1.48 1.77 1.45 1.81 1.41 1.81 1.38 1.84 1.35 1.86 1.3 1.86 1.28 1.9 1.25 1.92 1.21 1.93 1.17 1.95 1.15 1.97 1.11 1.99 1.07 1.99 1.05 2.02 1.01 2.04 0.98 2.05 0.94 2.07 0.9 2.08 0.88 2.1 0.84 2.12 0.81 2.13 0.77 2.15 0.74 2.16 0.7 2.17 0.67 2.18 0.64 2.19 0.61 2.22 0.57 2.22 0 0zm2.75 49.21l-22.95 -9.44 0 0 0.16 -1.3 0.15 -1.29 0.13 -1.28 0.12 -1.29 0.1 -1.29 0.09 -1.28 0.07 -1.26 0.06 -1.28 0.04 -1.28 0.03 -1.25 0.01 -1.26 -0 -1.26 -0.02 -1.25 -0.03 -1.25 -0.05 -1.24 -0.06 -1.24 -0.08 -1.25 -0.09 -1.24 -0.1 -1.23 -0.12 -1.22 -0.14 -1.23 -0.15 -1.23 -0.16 -1.22 -0.18 -1.2 -0.19 -1.23 -0.2 -1.22 -0.22 -1.19 -0.23 -1.2 -0.25 -1.22 -0.26 -1.2 -0.27 -1.19 -0.29 -1.2 22.33 0 0.37 1.52 0.35 1.53 0.33 1.53 0.31 1.52 0.3 1.53 0.28 1.55 0.26 1.52 0.24 1.53 0.22 1.55 0.2 1.54 0.18 1.53 0.17 1.54 0.15 1.54 0.13 1.54 0.11 1.54 0.09 1.53 0.08 1.54 0.06 1.54 0.04 1.54 0.02 1.54 0 1.53 -0.01 1.54 -0.03 1.55 -0.05 1.53 -0.07 1.53 -0.09 1.55 -0.11 1.54 -0.12 1.53 -0.14 1.53 -0.16 1.55 -0.18 1.54 -0.19 1.54 0 0zm-17.12 45.24l-19.95 -17.56 0 0 0.71 -1.06 0.69 -1.06 0.68 -1.07 0.66 -1.08 0.64 -1.09 0.62 -1.09 0.6 -1.09 0.59 -1.11 0.57 -1.11 0.55 -1.11 0.54 -1.12 0.51 -1.12 0.5 -1.14 0.48 -1.14 0.46 -1.15 0.45 -1.15 0.43 -1.16 0.41 -1.17 0.4 -1.17 0.38 -1.18 0.37 -1.19 0.34 -1.19 0.32 -1.19 0.31 -1.21 0.29 -1.22 0.28 -1.23 0.26 -1.23 0.24 -1.23 0.22 -1.25 0.21 -1.26 0.19 -1.25 0.17 -1.27 22.95 9.44 -0.21 1.56 -0.24 1.57 -0.26 1.54 -0.28 1.53 -0.3 1.54 -0.32 1.52 -0.34 1.5 -0.36 1.49 -0.38 1.49 -0.41 1.49 -0.43 1.47 -0.44 1.45 -0.46 1.45 -0.49 1.44 -0.51 1.43 -0.53 1.42 -0.55 1.41 -0.57 1.4 -0.59 1.39 -0.61 1.38 -0.63 1.37 -0.65 1.36 -0.67 1.35 -0.69 1.34 -0.7 1.32 -0.73 1.32 -0.75 1.31 -0.77 1.29 -0.79 1.29 -0.81 1.28 -0.83 1.26 -0.85 1.26 0 0zm-39.85 32.9l-13.9 -22.8 0 0 1.41 -0.7 1.39 -0.71 1.36 -0.72 1.34 -0.74 1.32 -0.75 1.29 -0.75 1.27 -0.77 1.25 -0.78 1.22 -0.78 1.21 -0.8 1.18 -0.81 1.15 -0.82 1.14 -0.83 1.11 -0.84 1.09 -0.85 1.06 -0.86 1.04 -0.88 1.03 -0.88 0.99 -0.89 0.98 -0.9 0.95 -0.91 0.93 -0.93 0.91 -0.93 0.88 -0.94 0.87 -0.96 0.85 -0.97 0.82 -0.97 0.79 -0.98 0.78 -0.99 0.76 -1.01 0.74 -1.02 0.72 -1.02 19.95 17.56 -0.89 1.27 -0.91 1.25 -0.94 1.24 -0.96 1.22 -0.99 1.21 -1.01 1.19 -1.03 1.17 -1.05 1.16 -1.08 1.15 -1.1 1.13 -1.12 1.11 -1.15 1.1 -1.17 1.08 -1.19 1.07 -1.21 1.05 -1.24 1.03 -1.26 1.02 -1.28 1 -1.3 0.99 -1.33 0.97 -1.35 0.96 -1.37 0.94 -1.39 0.92 -1.42 0.92 -1.44 0.89 -1.46 0.88 -1.49 0.87 -1.5 0.85 -1.53 0.84 -1.55 0.82 -1.57 0.81 -1.59 0.79 0 0zm-65.14 12.7l-6.09 -24.53 0 0 2.2 -0.01 2.18 -0.03 2.15 -0.06 2.12 -0.08 2.09 -0.1 2.07 -0.12 2.04 -0.14 2.02 -0.16 1.99 -0.19 1.96 -0.21 1.94 -0.23 1.91 -0.25 1.88 -0.27 1.86 -0.29 1.82 -0.31 1.8 -0.34 1.78 -0.35 1.75 -0.38 1.72 -0.4 1.7 -0.42 1.67 -0.44 1.64 -0.46 1.62 -0.48 1.59 -0.5 1.57 -0.52 1.54 -0.54 1.52 -0.56 1.49 -0.58 1.47 -0.61 1.44 -0.62 1.41 -0.64 1.39 -0.66 13.9 22.8 -1.66 0.79 -1.69 0.77 -1.71 0.74 -1.73 0.71 -1.76 0.69 -1.78 0.66 -1.81 0.64 -1.83 0.61 -1.86 0.59 -1.88 0.56 -1.9 0.53 -1.93 0.51 -1.95 0.48 -1.97 0.45 -2 0.43 -2.02 0.41 -2.05 0.38 -2.08 0.36 -2.1 0.33 -2.12 0.31 -2.14 0.28 -2.17 0.26 -2.19 0.23 -2.22 0.21 -2.24 0.18 -2.26 0.16 -2.29 0.14 -2.31 0.11 -2.33 0.08 -2.36 0.06 -2.38 0.04 -2.41 0.01 0 0zm-77.21 -16.28l3.87 -22.25 0 0 1.92 0.85 1.93 0.82 1.94 0.8 1.95 0.77 1.97 0.75 1.97 0.72 1.99 0.69 2 0.67 2.01 0.64 2.02 0.62 2.03 0.58 2.05 0.56 2.06 0.53 2.07 0.51 2.08 0.48 2.1 0.45 2.1 0.43 2.11 0.4 2.13 0.37 2.14 0.35 2.15 0.32 2.17 0.29 2.18 0.26 2.19 0.23 2.21 0.21 2.22 0.18 2.23 0.15 2.24 0.13 2.25 0.1 2.26 0.07 2.28 0.04 2.3 0.02 6.09 24.53 -2.54 -0.02 -2.53 -0.05 -2.53 -0.08 -2.51 -0.11 -2.51 -0.14 -2.5 -0.17 -2.49 -0.2 -2.49 -0.23 -2.48 -0.27 -2.47 -0.3 -2.46 -0.33 -2.45 -0.36 -2.44 -0.39 -2.43 -0.42 -2.44 -0.46 -2.42 -0.49 -2.41 -0.52 -2.4 -0.55 -2.39 -0.59 -2.38 -0.62 -2.37 -0.65 -2.37 -0.69 -2.36 -0.72 -2.35 -0.75 -2.34 -0.78 -2.33 -0.81 -2.33 -0.85 -2.31 -0.88 -2.31 -0.91 -2.29 -0.94 -2.29 -0.98 -2.27 -1.01 0 0zm-64.55 -43.78l12.84 -16.11 0 0 1.54 1.46 1.55 1.44 1.56 1.43 1.57 1.4 1.59 1.39 1.6 1.37 1.61 1.35 1.61 1.33 1.64 1.31 1.66 1.3 1.66 1.28 1.67 1.25 1.69 1.24 1.71 1.23 1.71 1.2 1.72 1.18 1.74 1.16 1.75 1.15 1.77 1.13 1.78 1.11 1.8 1.1 1.81 1.08 1.81 1.05 1.84 1.04 1.85 1.02 1.86 1 1.88 0.99 1.89 0.97 1.9 0.95 1.92 0.93 1.93 0.91 1.95 0.9 -3.87 22.25 -2.22 -1.02 -2.21 -1.04 -2.2 -1.07 -2.19 -1.09 -2.17 -1.11 -2.16 -1.13 -2.15 -1.15 -2.13 -1.18 -2.12 -1.2 -2.11 -1.23 -2.09 -1.25 -2.08 -1.26 -2.07 -1.29 -2.05 -1.31 -2.04 -1.33 -2.02 -1.36 -2.02 -1.39 -2 -1.41 -1.98 -1.42 -1.97 -1.45 -1.96 -1.47 -1.94 -1.49 -1.92 -1.51 -1.92 -1.54 -1.91 -1.57 -1.88 -1.58 -1.87 -1.6 -1.86 -1.62 -1.84 -1.65 -1.83 -1.67 -1.82 -1.69 -1.8 -1.71 0 0zm-48.3 -62.76l19.14 -7.96 0 0 1.09 1.93 1.11 1.91 1.13 1.91 1.13 1.88 1.15 1.87 1.16 1.85 1.18 1.85 1.19 1.83 1.2 1.81 1.22 1.8 1.23 1.78 1.24 1.76 1.26 1.75 1.28 1.74 1.29 1.73 1.3 1.71 1.31 1.69 1.33 1.68 1.35 1.67 1.36 1.65 1.37 1.64 1.39 1.63 1.4 1.61 1.42 1.6 1.44 1.59 1.45 1.57 1.46 1.56 1.48 1.54 1.49 1.52 1.52 1.53 1.52 1.51 1.53 1.49 -12.84 16.11 -1.77 -1.72 -1.75 -1.74 -1.73 -1.74 -1.73 -1.77 -1.7 -1.78 -1.69 -1.8 -1.67 -1.82 -1.65 -1.83 -1.64 -1.85 -1.62 -1.86 -1.61 -1.88 -1.59 -1.89 -1.57 -1.91 -1.55 -1.92 -1.54 -1.94 -1.52 -1.97 -1.5 -1.97 -1.48 -1.98 -1.47 -2 -1.45 -2.02 -1.44 -2.04 -1.42 -2.05 -1.39 -2.06 -1.39 -2.08 -1.36 -2.09 -1.35 -2.1 -1.34 -2.13 -1.31 -2.14 -1.29 -2.15 -1.27 -2.16 -1.26 -2.18 -1.24 -2.2 0 0zm-28.85 -72.13l22.33 0.01 0 -0 0.52 2.06 0.54 2.06 0.56 2.06 0.58 2.05 0.59 2.05 0.61 2.04 0.63 2.03 0.65 2.03 0.66 2.03 0.69 2.03 0.7 2.03 0.72 2.01 0.74 2.02 0.76 2.01 0.77 2.01 0.79 2.01 0.81 2 0.83 1.99 0.85 2 0.86 1.99 0.89 1.99 0.9 1.99 0.92 1.98 0.94 1.98 0.96 1.97 0.98 1.98 0.99 1.96 1.01 1.96 1.04 1.98 1.05 1.96 1.06 1.95 1.09 1.96 -19.14 7.96 -1.22 -2.19 -1.2 -2.2 -1.17 -2.2 -1.15 -2.19 -1.14 -2.21 -1.12 -2.22 -1.09 -2.22 -1.07 -2.22 -1.05 -2.23 -1.04 -2.23 -1.01 -2.24 -0.99 -2.23 -0.98 -2.24 -0.95 -2.25 -0.93 -2.25 -0.91 -2.25 -0.89 -2.26 -0.87 -2.26 -0.85 -2.26 -0.83 -2.26 -0.81 -2.27 -0.79 -2.28 -0.77 -2.27 -0.75 -2.29 -0.73 -2.29 -0.71 -2.3 -0.68 -2.29 -0.67 -2.3 -0.64 -2.3 -0.63 -2.31 -0.6 -2.31 -0.59 -2.31 0 -0zm-6.04 -81.1l23.01 8.86 0 0 -0.22 2.24 -0.2 2.25 -0.17 2.24 -0.14 2.24 -0.12 2.24 -0.09 2.24 -0.07 2.25 -0.05 2.24 -0.02 2.25 0 2.25 0.03 2.25 0.05 2.24 0.08 2.26 0.1 2.26 0.13 2.24 0.16 2.25 0.18 2.26 0.2 2.26 0.23 2.26 0.25 2.25 0.28 2.26 0.31 2.27 0.33 2.27 0.35 2.26 0.38 2.26 0.41 2.27 0.43 2.27 0.45 2.27 0.48 2.28 0.51 2.27 0.53 2.27 0.55 2.28 -22.33 -0.01 -0.63 -2.57 -0.59 -2.57 -0.57 -2.57 -0.54 -2.56 -0.52 -2.56 -0.48 -2.56 -0.46 -2.55 -0.43 -2.57 -0.4 -2.56 -0.37 -2.55 -0.34 -2.54 -0.32 -2.55 -0.29 -2.55 -0.26 -2.54 -0.23 -2.54 -0.2 -2.53 -0.18 -2.54 -0.15 -2.54 -0.11 -2.53 -0.09 -2.52 -0.06 -2.53 -0.03 -2.52 -0.01 -2.51 0.02 -2.52 0.05 -2.51 0.08 -2.5 0.1 -2.51 0.13 -2.5 0.16 -2.5 0.19 -2.5 0.22 -2.49 0.25 -2.49 0 0zm24.97 -72.32l20.19 17.21 0 0 -1.14 1.79 -1.12 1.81 -1.09 1.82 -1.05 1.83 -1.03 1.85 -1 1.86 -0.97 1.87 -0.94 1.88 -0.91 1.9 -0.88 1.91 -0.85 1.93 -0.82 1.94 -0.79 1.95 -0.76 1.97 -0.74 1.98 -0.7 1.99 -0.67 2 -0.65 2.01 -0.62 2.03 -0.59 2.04 -0.56 2.06 -0.53 2.07 -0.5 2.08 -0.47 2.1 -0.44 2.11 -0.42 2.13 -0.39 2.14 -0.36 2.15 -0.33 2.17 -0.3 2.18 -0.27 2.2 -0.25 2.21 -23.01 -8.86 0.28 -2.5 0.31 -2.49 0.34 -2.48 0.38 -2.46 0.41 -2.45 0.44 -2.43 0.47 -2.41 0.51 -2.4 0.54 -2.38 0.57 -2.37 0.61 -2.35 0.64 -2.34 0.67 -2.32 0.7 -2.3 0.73 -2.29 0.77 -2.27 0.8 -2.26 0.83 -2.23 0.86 -2.22 0.9 -2.21 0.93 -2.19 0.96 -2.17 0.99 -2.15 1.02 -2.14 1.05 -2.12 1.09 -2.11 1.12 -2.09 1.15 -2.07 1.18 -2.06 1.21 -2.03 1.24 -2.02 1.28 -2 0 0zm59.7 -51.95l14.14 22.68 0 0 -2.21 1.15 -2.17 1.16 -2.13 1.18 -2.1 1.21 -2.07 1.23 -2.03 1.24 -1.99 1.27 -1.96 1.28 -1.93 1.31 -1.9 1.33 -1.86 1.34 -1.83 1.36 -1.79 1.38 -1.75 1.4 -1.73 1.43 -1.7 1.45 -1.65 1.46 -1.62 1.48 -1.59 1.5 -1.56 1.52 -1.52 1.54 -1.49 1.56 -1.45 1.58 -1.42 1.6 -1.39 1.62 -1.36 1.64 -1.32 1.66 -1.29 1.68 -1.26 1.7 -1.23 1.72 -1.19 1.74 -1.16 1.76 -20.19 -17.21 1.33 -2.01 1.36 -1.98 1.39 -1.96 1.43 -1.94 1.47 -1.9 1.5 -1.88 1.54 -1.86 1.57 -1.83 1.61 -1.81 1.65 -1.79 1.68 -1.76 1.71 -1.73 1.75 -1.71 1.78 -1.68 1.82 -1.66 1.85 -1.63 1.88 -1.61 1.91 -1.59 1.96 -1.57 1.99 -1.54 2.02 -1.51 2.06 -1.49 2.09 -1.46 2.13 -1.44 2.16 -1.41 2.19 -1.39 2.23 -1.37 2.26 -1.34 2.3 -1.32 2.33 -1.29 2.36 -1.27 2.39 -1.24 0 0zm97.94 -19.86l6.09 24.53 0 0 -3.43 0.02 -3.39 0.05 -3.34 0.09 -3.31 0.13 -3.27 0.16 -3.23 0.2 -3.19 0.23 -3.15 0.27 -3.1 0.3 -3.06 0.34 -3.03 0.38 -2.99 0.41 -2.95 0.44 -2.91 0.48 -2.87 0.51 -2.83 0.55 -2.78 0.58 -2.75 0.62 -2.71 0.65 -2.67 0.69 -2.63 0.72 -2.59 0.75 -2.55 0.79 -2.51 0.82 -2.47 0.86 -2.43 0.89 -2.39 0.93 -2.35 0.96 -2.31 1 -2.27 1.03 -2.24 1.06 -2.2 1.1 -14.14 -22.68 2.47 -1.23 2.51 -1.19 2.55 -1.15 2.59 -1.11 2.63 -1.07 2.66 -1.03 2.71 -0.99 2.74 -0.95 2.78 -0.91 2.82 -0.87 2.86 -0.83 2.9 -0.79 2.93 -0.75 2.97 -0.71 3.01 -0.68 3.05 -0.64 3.08 -0.6 3.12 -0.56 3.16 -0.52 3.19 -0.48 3.23 -0.44 3.27 -0.4 3.3 -0.37 3.35 -0.32 3.38 -0.29 3.42 -0.25 3.45 -0.21 3.49 -0.17 3.53 -0.14 3.56 -0.09 3.6 -0.06 3.64 -0.02 0 0zm86.64 8.76l1.55 24.05 0 0 -2.45 -0.51 -2.46 -0.49 -2.46 -0.47 -2.47 -0.46 -2.48 -0.44 -2.49 -0.43 -2.49 -0.41 -2.5 -0.4 -2.51 -0.38 -2.52 -0.37 -2.53 -0.35 -2.53 -0.33 -2.54 -0.31 -2.55 -0.3 -2.56 -0.28 -2.56 -0.27 -2.56 -0.25 -2.58 -0.23 -2.59 -0.22 -2.59 -0.2 -2.59 -0.19 -2.61 -0.17 -2.61 -0.15 -2.62 -0.14 -2.63 -0.12 -2.63 -0.11 -2.64 -0.09 -2.65 -0.07 -2.66 -0.06 -2.67 -0.04 -2.67 -0.03 -2.68 -0.01 -6.09 -24.53 2.8 0.01 2.8 0.03 2.79 0.04 2.79 0.06 2.78 0.08 2.78 0.09 2.77 0.11 2.76 0.13 2.75 0.14 2.75 0.16 2.74 0.18 2.74 0.2 2.73 0.21 2.72 0.23 2.72 0.25 2.72 0.27 2.7 0.28 2.69 0.3 2.69 0.31 2.69 0.33 2.68 0.35 2.67 0.37 2.67 0.39 2.66 0.4 2.65 0.42 2.65 0.44 2.64 0.46 2.63 0.47 2.63 0.49 2.62 0.51 2.62 0.52 2.61 0.54 0 0zm77.86 20.71l-1.1 23.33 0 0 -2.21 -0.72 -2.22 -0.71 -2.23 -0.71 -2.24 -0.7 -2.25 -0.7 -2.26 -0.69 -2.27 -0.68 -2.28 -0.68 -2.28 -0.67 -2.29 -0.67 -2.31 -0.66 -2.31 -0.66 -2.32 -0.65 -2.33 -0.64 -2.34 -0.64 -2.35 -0.63 -2.35 -0.62 -2.36 -0.62 -2.37 -0.61 -2.38 -0.6 -2.39 -0.6 -2.4 -0.59 -2.41 -0.59 -2.41 -0.58 -2.42 -0.57 -2.44 -0.57 -2.44 -0.56 -2.45 -0.55 -2.46 -0.55 -2.47 -0.54 -2.48 -0.53 -2.49 -0.53 -1.55 -24.05 2.56 0.54 2.55 0.55 2.54 0.56 2.54 0.56 2.53 0.57 2.52 0.58 2.5 0.58 2.5 0.59 2.5 0.6 2.49 0.6 2.48 0.61 2.47 0.62 2.46 0.62 2.45 0.63 2.45 0.64 2.44 0.65 2.43 0.65 2.42 0.66 2.41 0.66 2.41 0.67 2.39 0.68 2.38 0.68 2.38 0.69 2.38 0.7 2.36 0.7 2.35 0.71 2.35 0.72 2.34 0.72 2.33 0.73 2.32 0.74 2.32 0.75 2.31 0.75 0 0zm68.29 24.39l-2.52 22.82 0 0 -1.95 -0.76 -1.95 -0.76 -1.96 -0.76 -1.97 -0.76 -1.98 -0.75 -2 -0.76 -2.01 -0.76 -2.01 -0.75 -2.01 -0.75 -2.03 -0.75 -2.05 -0.76 -2.04 -0.75 -2.06 -0.75 -2.07 -0.75 -2.07 -0.75 -2.08 -0.74 -2.1 -0.75 -2.11 -0.75 -2.11 -0.74 -2.12 -0.74 -2.13 -0.74 -2.14 -0.74 -2.15 -0.74 -2.16 -0.74 -2.17 -0.74 -2.18 -0.74 -2.18 -0.74 -2.2 -0.74 -2.21 -0.74 -2.21 -0.74 -2.22 -0.73 -2.23 -0.74 1.1 -23.33 2.27 0.75 2.26 0.75 2.26 0.75 2.24 0.75 2.24 0.75 2.23 0.75 2.21 0.75 2.21 0.75 2.2 0.76 2.19 0.75 2.18 0.76 2.17 0.76 2.17 0.76 2.16 0.76 2.14 0.76 2.13 0.76 2.13 0.76 2.13 0.77 2.11 0.77 2.1 0.76 2.1 0.77 2.08 0.77 2.07 0.77 2.08 0.77 2.06 0.77 2.04 0.77 2.03 0.77 2.03 0.77 2.03 0.78 2.01 0.78 2.01 0.78 1.99 0.78 0 0zm47.7 19.77l16.57 21.15 -8.04 1.33 -1.67 -0.43 -1.69 -0.45 -1.69 -0.46 -1.71 -0.47 -1.72 -0.48 -1.72 -0.49 -1.74 -0.5 -1.75 -0.51 -1.75 -0.52 -1.77 -0.54 -1.78 -0.55 -1.79 -0.56 -1.79 -0.57 -1.81 -0.58 -1.82 -0.59 -1.82 -0.6 -1.84 -0.61 -1.86 -0.63 -1.86 -0.64 -1.86 -0.64 -1.89 -0.66 -1.89 -0.67 -1.9 -0.68 -1.92 -0.69 -1.92 -0.7 -1.94 -0.71 -1.95 -0.73 -1.95 -0.73 -1.96 -0.74 -1.98 -0.76 -1.99 -0.77 -2 -0.78 2.52 -22.82 1.92 0.75 1.91 0.74 1.9 0.73 1.89 0.72 1.88 0.71 1.86 0.69 1.85 0.68 1.84 0.67 1.83 0.66 1.82 0.65 1.81 0.64 1.79 0.63 1.79 0.62 1.77 0.61 1.75 0.59 1.75 0.58 1.74 0.57 1.72 0.56 1.71 0.55 1.71 0.54 1.68 0.53 1.68 0.52 1.66 0.5 1.66 0.5 1.64 0.48 1.62 0.47 1.63 0.46 1.6 0.45 1.59 0.44 1.59 0.43 1.57 0.42 1.56 0.4 -8.04 1.33zm16.57 21.15l-3.3 2.54 -4.73 -1.22 8.04 -1.33zm44.26 -41.77l6.09 24.53 0 0 -1.74 0.02 -1.72 0.05 -1.72 0.08 -1.7 0.12 -1.69 0.15 -1.68 0.18 -1.67 0.21 -1.65 0.25 -1.64 0.28 -1.64 0.32 -1.62 0.35 -1.61 0.39 -1.61 0.42 -1.59 0.45 -1.59 0.48 -1.58 0.52 -1.56 0.55 -1.55 0.58 -1.55 0.62 -1.53 0.65 -1.52 0.69 -1.52 0.72 -1.51 0.76 -1.5 0.79 -1.49 0.83 -1.48 0.86 -1.47 0.9 -1.46 0.93 -1.45 0.97 -1.44 1 -1.43 1.04 -1.42 1.08 -16.57 -21.15 1.66 -1.25 1.68 -1.22 1.69 -1.18 1.71 -1.14 1.73 -1.1 1.74 -1.06 1.76 -1.02 1.77 -0.99 1.79 -0.94 1.81 -0.91 1.82 -0.87 1.84 -0.83 1.85 -0.79 1.86 -0.75 1.88 -0.71 1.9 -0.67 1.91 -0.63 1.93 -0.59 1.94 -0.55 1.95 -0.51 1.97 -0.47 1.99 -0.43 2 -0.39 2.02 -0.35 2.03 -0.3 2.04 -0.27 2.06 -0.22 2.07 -0.18 2.09 -0.14 2.1 -0.1 2.11 -0.06 2.13 -0.02 0 0zm41.09 9.77l-7.74 20.15 -0 -0 -0.39 -0.24 -0.43 -0.26 -0.44 -0.24 -0.47 -0.25 -0.52 -0.26 -0.55 -0.26 -0.55 -0.24 -0.61 -0.25 -0.65 -0.25 -0.66 -0.23 -0.69 -0.23 -0.73 -0.22 -0.77 -0.22 -0.79 -0.21 -0.82 -0.21 -0.85 -0.19 -0.88 -0.19 -0.9 -0.18 -0.94 -0.17 -0.96 -0.16 -0.99 -0.14 -1.02 -0.14 -1.05 -0.12 -1.07 -0.11 -1.1 -0.1 -1.13 -0.09 -1.15 -0.07 -1.17 -0.06 -1.2 -0.05 -1.24 -0.03 -1.26 -0.02 -1.28 -0.01 -6.09 -24.53 1.5 0.01 1.48 0.03 1.46 0.04 1.46 0.06 1.44 0.07 1.42 0.09 1.4 0.11 1.39 0.12 1.38 0.14 1.36 0.16 1.34 0.18 1.33 0.19 1.33 0.22 1.29 0.23 1.3 0.25 1.27 0.27 1.27 0.29 1.26 0.31 1.24 0.33 1.22 0.35 1.22 0.38 1.22 0.41 1.21 0.43 1.18 0.45 1.17 0.47 1.19 0.52 1.15 0.53 1.14 0.56 1.14 0.59 1.14 0.63 1.1 0.65 1.11 0.69 -0 -0zm21.67 28.06l-22.33 -0.01 0 0.01 -0.07 -0.24 -0.07 -0.23 -0.07 -0.23 -0.08 -0.22 -0.08 -0.2 -0.08 -0.2 -0.09 -0.2 -0.1 -0.21 -0.1 -0.19 -0.09 -0.16 -0.12 -0.2 -0.14 -0.23 -0.11 -0.17 -0.14 -0.2 -0.19 -0.26 -0.16 -0.21 -0.17 -0.2 -0.21 -0.24 -0.24 -0.27 -0.23 -0.25 -0.24 -0.24 -0.29 -0.28 -0.32 -0.3 -0.31 -0.28 -0.33 -0.29 -0.37 -0.31 -0.38 -0.3 -0.42 -0.32 -0.44 -0.32 -0.46 -0.33 -0.47 -0.32 -0.5 -0.33 7.74 -20.15 0.95 0.62 0.95 0.64 0.92 0.65 0.91 0.66 0.89 0.68 0.9 0.71 0.87 0.71 0.87 0.74 0.86 0.76 0.81 0.76 0.81 0.79 0.82 0.83 0.79 0.84 0.75 0.83 0.74 0.86 0.75 0.91 0.71 0.92 0.65 0.88 0.67 0.95 0.66 0.99 0.59 0.94 0.58 0.98 0.57 1.03 0.53 1.02 0.49 1.01 0.46 1.02 0.44 1.04 0.41 1.05 0.37 1.05 0.34 1.04 0.31 1.05 0.28 1.05 0 0.01zm-9.9 31.34l-17.79 -20.1 0 0 0.51 -0.5 0.49 -0.51 0.46 -0.49 0.42 -0.47 0.41 -0.49 0.38 -0.47 0.35 -0.46 0.32 -0.45 0.3 -0.44 0.28 -0.44 0.24 -0.41 0.22 -0.41 0.2 -0.4 0.18 -0.38 0.16 -0.38 0.14 -0.37 0.11 -0.33 0.1 -0.33 0.08 -0.32 0.07 -0.31 0.05 -0.3 0.04 -0.26 0.03 -0.25 0.02 -0.26 0.01 -0.25 -0 -0.24 -0.01 -0.23 -0.02 -0.21 -0.03 -0.23 -0.04 -0.23 -0.04 -0.21 -0.05 -0.23 22.33 0.01 0.27 1.18 0.23 1.21 0.18 1.17 0.14 1.17 0.1 1.19 0.05 1.15 0.01 1.14 -0.03 1.13 -0.07 1.11 -0.11 1.12 -0.16 1.1 -0.19 1.06 -0.23 1.04 -0.26 1.02 -0.3 1.01 -0.34 1 -0.37 0.96 -0.4 0.95 -0.43 0.94 -0.46 0.91 -0.49 0.9 -0.52 0.88 -0.54 0.86 -0.56 0.84 -0.6 0.84 -0.62 0.82 -0.64 0.8 -0.66 0.78 -0.7 0.79 -0.72 0.77 -0.73 0.75 -0.77 0.75 0 0zm-33.31 8.14l-21.56 -14.61 7.35 -4.95 1.41 -0.06 1.39 -0.08 1.35 -0.09 1.31 -0.11 1.28 -0.13 1.25 -0.14 1.22 -0.16 1.19 -0.17 1.17 -0.19 1.13 -0.2 1.09 -0.21 1.06 -0.23 1.04 -0.24 1 -0.25 0.97 -0.27 0.94 -0.28 0.91 -0.29 0.88 -0.3 0.84 -0.31 0.81 -0.33 0.79 -0.34 0.75 -0.34 0.72 -0.36 0.7 -0.37 0.66 -0.37 0.63 -0.38 0.61 -0.4 0.58 -0.4 0.54 -0.4 0.52 -0.42 0.49 -0.42 0.46 -0.43 17.79 20.1 -0.87 0.8 -0.9 0.77 -0.92 0.74 -0.96 0.71 -0.98 0.68 -1.01 0.65 -1.04 0.64 -1.07 0.6 -1.08 0.57 -1.12 0.55 -1.14 0.53 -1.16 0.5 -1.19 0.48 -1.22 0.45 -1.24 0.43 -1.26 0.4 -1.28 0.38 -1.31 0.36 -1.34 0.34 -1.36 0.31 -1.39 0.3 -1.42 0.27 -1.42 0.25 -1.45 0.23 -1.48 0.21 -1.5 0.19 -1.53 0.17 -1.55 0.15 -1.58 0.13 -1.61 0.11 -1.62 0.09 -1.65 0.07 7.35 -4.95zm-21.56 -14.61l2.03 -4.75 5.33 -0.2 -7.35 4.95zm16.14 79.54l-22.83 -2.49 0 -0 -0.41 -2.76 -0.37 -2.74 -0.33 -2.72 -0.29 -2.7 -0.25 -2.67 -0.22 -2.66 -0.17 -2.63 -0.14 -2.6 -0.09 -2.59 -0.06 -2.56 -0.02 -2.54 0.03 -2.52 0.06 -2.5 0.11 -2.48 0.15 -2.45 0.18 -2.42 0.23 -2.41 0.27 -2.37 0.31 -2.36 0.35 -2.34 0.39 -2.31 0.43 -2.27 0.47 -2.26 0.51 -2.24 0.55 -2.21 0.59 -2.18 0.64 -2.16 0.67 -2.13 0.72 -2.11 0.76 -2.08 0.8 -2.06 0.84 -2.02 21.56 14.61 -0.69 1.67 -0.66 1.68 -0.62 1.71 -0.59 1.73 -0.56 1.75 -0.52 1.77 -0.49 1.8 -0.46 1.82 -0.42 1.84 -0.39 1.87 -0.36 1.9 -0.32 1.91 -0.29 1.93 -0.26 1.96 -0.22 1.99 -0.19 2 -0.15 2.03 -0.13 2.06 -0.09 2.08 -0.05 2.11 -0.02 2.14 0.01 2.16 0.05 2.19 0.08 2.21 0.12 2.24 0.15 2.26 0.19 2.28 0.22 2.32 0.25 2.34 0.29 2.36 0.33 2.39 0.36 2.42 0 -0zm18.56 90.09l-22.33 0 0 0 -0.77 -3.13 -0.76 -3.12 -0.75 -3.1 -0.74 -3.08 -0.73 -3.07 -0.71 -3.05 -0.7 -3.03 -0.69 -3.02 -0.68 -3.01 -0.67 -2.99 -0.66 -2.98 -0.65 -2.96 -0.64 -2.94 -0.63 -2.93 -0.62 -2.92 -0.6 -2.9 -0.59 -2.89 -0.58 -2.87 -0.57 -2.85 -0.56 -2.84 -0.54 -2.83 -0.53 -2.81 -0.52 -2.79 -0.51 -2.78 -0.5 -2.76 -0.49 -2.75 -0.47 -2.74 -0.46 -2.71 -0.45 -2.7 -0.44 -2.69 -0.43 -2.67 -0.42 -2.66 22.83 2.49 0.4 2.57 0.42 2.58 0.42 2.59 0.44 2.61 0.45 2.64 0.46 2.64 0.47 2.66 0.48 2.68 0.5 2.69 0.51 2.72 0.52 2.73 0.53 2.73 0.54 2.76 0.55 2.78 0.56 2.79 0.57 2.81 0.58 2.82 0.59 2.84 0.61 2.85 0.62 2.88 0.63 2.89 0.64 2.9 0.65 2.92 0.66 2.93 0.68 2.95 0.69 2.97 0.7 2.99 0.71 3 0.72 3.02 0.74 3.04 0.75 3.05 0.76 3.06 0 0zm23.65 105.69l-22.61 -1.26 0 0 -0.69 -3.43 -0.7 -3.43 -0.7 -3.42 -0.7 -3.4 -0.7 -3.4 -0.7 -3.38 -0.71 -3.37 -0.71 -3.37 -0.71 -3.34 -0.71 -3.34 -0.72 -3.33 -0.72 -3.32 -0.72 -3.3 -0.73 -3.3 -0.73 -3.28 -0.73 -3.26 -0.73 -3.26 -0.74 -3.25 -0.74 -3.23 -0.74 -3.22 -0.74 -3.22 -0.74 -3.2 -0.75 -3.19 -0.75 -3.18 -0.75 -3.17 -0.75 -3.16 -0.75 -3.14 -0.76 -3.14 -0.76 -3.13 -0.76 -3.11 -0.76 -3.09 -0.77 -3.09 22.33 0 0.77 3.13 0.78 3.15 0.77 3.16 0.77 3.16 0.77 3.18 0.76 3.19 0.76 3.2 0.76 3.21 0.76 3.22 0.76 3.23 0.75 3.24 0.75 3.25 0.75 3.27 0.75 3.28 0.74 3.28 0.74 3.3 0.74 3.31 0.74 3.31 0.73 3.33 0.73 3.35 0.73 3.35 0.73 3.36 0.73 3.38 0.72 3.39 0.72 3.39 0.72 3.41 0.71 3.43 0.71 3.42 0.71 3.44 0.7 3.45 0.7 3.46 0.7 3.47 0 0zm-14.55 104.01l22.11 13.15 -22.6 -10.51 0.19 -3.4 0.16 -3.39 0.13 -3.4 0.11 -3.39 0.08 -3.39 0.05 -3.39 0.02 -3.39 0 -3.38 -0.03 -3.38 -0.06 -3.38 -0.09 -3.38 -0.11 -3.38 -0.14 -3.37 -0.17 -3.38 -0.2 -3.38 -0.22 -3.37 -0.25 -3.37 -0.28 -3.37 -0.3 -3.36 -0.33 -3.36 -0.36 -3.37 -0.39 -3.36 -0.42 -3.36 -0.44 -3.36 -0.47 -3.36 -0.5 -3.35 -0.53 -3.36 -0.55 -3.36 -0.58 -3.35 -0.61 -3.35 -0.63 -3.35 -0.66 -3.35 22.61 1.26 0.7 3.57 0.68 3.57 0.65 3.57 0.62 3.57 0.59 3.57 0.56 3.57 0.53 3.58 0.5 3.57 0.47 3.57 0.44 3.58 0.41 3.58 0.38 3.57 0.35 3.58 0.32 3.58 0.29 3.58 0.27 3.58 0.24 3.58 0.21 3.58 0.18 3.58 0.15 3.58 0.12 3.58 0.09 3.58 0.06 3.58 0.03 3.58 0.01 3.58 -0.03 3.58 -0.05 3.58 -0.08 3.58 -0.11 3.58 -0.14 3.58 -0.17 3.59 -0.2 3.58 -22.6 -10.51zm38 -126.83l22.4 12.2 0 0 -1.16 4.23 -1.16 4.22 -1.16 4.2 -1.17 4.18 -1.17 4.17 -1.17 4.16 -1.18 4.14 -1.17 4.13 -1.18 4.11 -1.18 4.1 -1.18 4.08 -1.18 4.06 -1.19 4.05 -1.19 4.03 -1.19 4.01 -1.19 4 -1.2 3.99 -1.2 3.97 -1.2 3.95 -1.2 3.94 -1.21 3.93 -1.21 3.9 -1.21 3.89 -1.22 3.88 -1.22 3.86 -1.22 3.85 -1.22 3.83 -1.22 3.81 -1.23 3.79 -1.23 3.78 -1.23 3.77 -1.23 3.75 -22.11 -13.15 1.22 -3.72 1.22 -3.73 1.22 -3.75 1.22 -3.77 1.21 -3.78 1.21 -3.8 1.21 -3.81 1.21 -3.83 1.21 -3.85 1.2 -3.86 1.2 -3.88 1.19 -3.89 1.19 -3.91 1.19 -3.93 1.19 -3.94 1.19 -3.95 1.19 -3.97 1.18 -3.99 1.18 -4 1.18 -4.02 1.18 -4.04 1.18 -4.05 1.17 -4.06 1.17 -4.08 1.17 -4.1 1.17 -4.12 1.16 -4.13 1.16 -4.14 1.16 -4.16 1.16 -4.18 1.16 -4.19 1.15 -4.21 0 0zm44.15 -128.49l21.58 14.57 0 0 -1.55 3.7 -1.54 3.71 -1.53 3.73 -1.52 3.75 -1.5 3.76 -1.49 3.77 -1.48 3.8 -1.47 3.81 -1.45 3.82 -1.44 3.84 -1.43 3.86 -1.41 3.87 -1.4 3.88 -1.39 3.9 -1.37 3.92 -1.36 3.93 -1.35 3.95 -1.34 3.96 -1.32 3.98 -1.31 4 -1.29 4.01 -1.28 4.03 -1.27 4.04 -1.26 4.06 -1.24 4.07 -1.23 4.09 -1.22 4.11 -1.21 4.13 -1.19 4.14 -1.18 4.15 -1.16 4.17 -1.15 4.19 -22.4 -12.2 1.17 -4.26 1.18 -4.24 1.2 -4.23 1.21 -4.21 1.23 -4.19 1.24 -4.18 1.25 -4.17 1.26 -4.15 1.28 -4.14 1.29 -4.12 1.31 -4.1 1.32 -4.09 1.33 -4.07 1.35 -4.05 1.36 -4.04 1.37 -4.02 1.39 -4.01 1.4 -3.99 1.41 -3.98 1.42 -3.97 1.44 -3.94 1.45 -3.92 1.46 -3.91 1.48 -3.9 1.5 -3.88 1.5 -3.86 1.52 -3.86 1.53 -3.83 1.55 -3.82 1.56 -3.8 1.57 -3.79 1.59 -3.77 0 0zm61.86 -106.09l19.25 18.51 0 -0 -2.16 2.74 -2.14 2.77 -2.12 2.79 -2.1 2.82 -2.08 2.85 -2.06 2.88 -2.04 2.91 -2.02 2.94 -2.01 2.97 -1.98 3 -1.97 3.03 -1.95 3.06 -1.93 3.08 -1.91 3.12 -1.89 3.15 -1.87 3.18 -1.85 3.21 -1.83 3.23 -1.81 3.27 -1.79 3.3 -1.77 3.32 -1.75 3.35 -1.74 3.39 -1.72 3.41 -1.7 3.44 -1.68 3.47 -1.66 3.5 -1.64 3.53 -1.62 3.56 -1.6 3.59 -1.58 3.62 -1.56 3.65 -21.58 -14.57 1.61 -3.77 1.63 -3.74 1.66 -3.71 1.67 -3.68 1.7 -3.66 1.72 -3.63 1.74 -3.59 1.76 -3.57 1.78 -3.54 1.8 -3.51 1.82 -3.48 1.84 -3.45 1.86 -3.42 1.88 -3.39 1.9 -3.36 1.92 -3.33 1.94 -3.3 1.97 -3.27 1.98 -3.24 2.01 -3.22 2.03 -3.18 2.04 -3.15 2.07 -3.13 2.09 -3.09 2.11 -3.06 2.13 -3.03 2.15 -3.01 2.17 -2.97 2.19 -2.95 2.21 -2.92 2.23 -2.88 2.25 -2.85 0 -0zm88.09 -57.65l19.38 18.34 -4.36 2.82 -3.11 0.81 -3.08 0.88 -3.05 0.93 -3.01 0.99 -2.98 1.05 -2.95 1.1 -2.91 1.16 -2.89 1.22 -2.85 1.28 -2.82 1.33 -2.79 1.39 -2.76 1.45 -2.72 1.51 -2.69 1.57 -2.67 1.63 -2.63 1.68 -2.6 1.74 -2.57 1.8 -2.54 1.86 -2.51 1.92 -2.48 1.98 -2.45 2.04 -2.42 2.1 -2.39 2.16 -2.36 2.22 -2.33 2.28 -2.3 2.34 -2.26 2.39 -2.23 2.46 -2.2 2.52 -2.17 2.58 -2.14 2.64 -19.25 -18.51 2.33 -2.86 2.36 -2.8 2.4 -2.74 2.43 -2.68 2.47 -2.62 2.51 -2.55 2.54 -2.49 2.58 -2.43 2.62 -2.37 2.66 -2.3 2.69 -2.24 2.73 -2.18 2.76 -2.11 2.8 -2.06 2.84 -1.99 2.87 -1.93 2.91 -1.86 2.94 -1.8 2.98 -1.74 3.02 -1.67 3.05 -1.61 3.09 -1.55 3.13 -1.48 3.16 -1.41 3.2 -1.35 3.23 -1.29 3.27 -1.22 3.3 -1.16 3.34 -1.1 3.37 -1.03 3.41 -0.97 3.44 -0.9 -4.36 2.82zm19.38 18.34l-1.66 2.14 -2.7 0.68 4.36 -2.82zm0.34 -34.15l14.47 22.51 0 0 -0.64 0.35 -0.62 0.34 -0.62 0.36 -0.62 0.36 -0.58 0.35 -0.58 0.35 -0.58 0.37 -0.56 0.36 -0.54 0.35 -0.54 0.36 -0.53 0.37 -0.51 0.36 -0.5 0.36 -0.49 0.37 -0.49 0.38 -0.46 0.36 -0.44 0.36 -0.45 0.38 -0.43 0.37 -0.42 0.37 -0.41 0.37 -0.4 0.38 -0.39 0.37 -0.38 0.37 -0.36 0.37 -0.35 0.37 -0.35 0.38 -0.34 0.37 -0.32 0.37 -0.3 0.36 -0.3 0.37 -0.29 0.37 -19.38 -18.34 0.45 -0.57 0.47 -0.57 0.48 -0.57 0.49 -0.56 0.5 -0.55 0.5 -0.54 0.52 -0.54 0.53 -0.54 0.54 -0.53 0.55 -0.52 0.56 -0.51 0.57 -0.52 0.59 -0.51 0.59 -0.5 0.59 -0.49 0.62 -0.51 0.63 -0.49 0.62 -0.47 0.65 -0.48 0.66 -0.47 0.66 -0.47 0.67 -0.46 0.68 -0.46 0.7 -0.46 0.7 -0.45 0.7 -0.44 0.73 -0.45 0.74 -0.44 0.73 -0.42 0.75 -0.43 0.77 -0.43 0.77 -0.42 0 0zm32.81 -7.16l6.09 24.53 0 0 -0.96 0.01 -0.94 0.02 -0.93 0.03 -0.92 0.04 -0.91 0.05 -0.9 0.06 -0.87 0.07 -0.86 0.08 -0.87 0.09 -0.84 0.1 -0.82 0.11 -0.82 0.12 -0.81 0.13 -0.8 0.14 -0.77 0.15 -0.76 0.16 -0.76 0.17 -0.74 0.18 -0.73 0.19 -0.71 0.2 -0.71 0.21 -0.7 0.22 -0.68 0.23 -0.66 0.23 -0.65 0.24 -0.66 0.26 -0.64 0.26 -0.62 0.27 -0.61 0.28 -0.6 0.29 -0.6 0.3 -0.58 0.31 -14.47 -22.51 0.86 -0.45 0.86 -0.44 0.88 -0.42 0.9 -0.41 0.9 -0.39 0.91 -0.38 0.92 -0.36 0.94 -0.35 0.95 -0.33 0.95 -0.31 0.97 -0.3 0.98 -0.29 1 -0.27 1 -0.26 1.01 -0.24 1.02 -0.23 1.04 -0.21 1.05 -0.2 1.05 -0.18 1.06 -0.17 1.07 -0.16 1.09 -0.15 1.1 -0.13 1.09 -0.11 1.12 -0.1 1.13 -0.09 1.13 -0.07 1.14 -0.06 1.15 -0.05 1.17 -0.03 1.18 -0.02 1.18 -0.01 0 0z"/>
     <path id="_1" class="fil2" d="M896.79 103.98c10.34,0 18.78,2.21 25.33,6.63 6.55,4.42 10.61,9.78 12.18,16.09 1.57,6.31 0.08,12.46 -4.46,18.46 -4.54,6 -12.44,10.57 -23.72,13.72l-105.42 575.94 -99.05 0 129.38 -552.28c-19.46,16.4 -36.19,40.38 -50.17,71.93 -13.98,31.55 -27.11,66.57 -39.36,105.06 -12.26,38.49 -24.49,78.25 -36.7,119.26 -12.2,41.02 -25.98,79.19 -41.32,114.53 -15.34,35.34 -33.23,65.63 -53.66,90.87 -20.43,25.24 -45.36,41.01 -74.8,47.32l-21.69 -28.4c13.05,-14.51 21.62,-32.03 25.71,-52.53 4.09,-20.51 5.42,-42.91 3.98,-67.2 -1.44,-24.29 -4.56,-50.16 -9.37,-77.61 -4.81,-27.45 -9.63,-55.53 -14.46,-84.24 -4.84,-28.71 -8.67,-57.42 -11.49,-86.13 -2.83,-28.71 -2.73,-56.64 0.29,-83.77 -9.81,32.18 -17.75,67.83 -23.82,106.96 -6.07,39.12 -12.46,78.72 -19.16,118.79 -6.7,40.07 -14.53,79.03 -23.5,116.89 -8.97,37.86 -21.15,71.47 -36.55,100.8 -15.39,29.34 -34.92,53.01 -58.59,70.99 -23.67,17.99 -53.3,26.97 -88.91,26.97 -21.82,0 -41.37,-3 -58.65,-8.99 -17.28,-6 -32.05,-14.04 -44.32,-24.14 -12.27,-10.1 -22.23,-21.3 -29.88,-33.6 -7.65,-12.31 -13.04,-24.77 -16.18,-37.39 -2.82,-11.36 -3.77,-22.09 -2.83,-32.18 0.94,-10.1 3.4,-19.24 7.39,-27.45 3.99,-8.2 9.7,-14.67 17.14,-19.4 7.44,-4.73 16.61,-7.1 27.52,-7.1 9.76,0 18.23,1.73 25.41,5.21 7.18,3.47 13.25,7.1 18.21,10.89 5.69,4.41 10.67,9.46 14.96,15.14 -10.91,0 -18.36,5.84 -22.35,17.51 -3.99,11.67 -4.18,24.77 -0.57,39.28 3.61,14.52 11.38,27.92 23.34,40.23 11.95,12.3 27.98,18.46 48.08,18.46 25.84,0 47.14,-11.36 63.88,-34.08 16.75,-22.72 30.57,-52.06 41.44,-88.03 10.87,-35.97 19.94,-76.35 27.18,-121.16 7.25,-44.8 14.86,-89.29 22.84,-133.46 7.97,-44.17 17.16,-85.81 27.54,-124.94 10.38,-39.12 24.2,-71.31 41.47,-96.55 -17.01,-3.78 -32.98,-8.52 -47.88,-14.2 -14.9,-5.68 -30.27,-10.88 -46.08,-15.62 -15.82,-4.74 -33.2,-8.83 -52.15,-12.3 -18.95,-3.47 -40.77,-5.21 -65.46,-5.21 -31.58,0 -57.77,5.52 -78.57,16.56 -20.84,10.88 -36.79,25.24 -47.91,42.91 -11.15,17.51 -17.88,37.23 -20.23,59 -2.38,21.62 -0.97,42.91 4.16,63.58 3.92,15.78 9.8,30.76 17.59,44.8 7.83,14.19 17.39,26.66 28.67,37.38 11.24,10.57 23.97,19.09 38.18,25.4 14.2,6.31 29.91,9.46 47.14,9.46 12.06,0 22.17,-2.05 30.34,-6.15 8.17,-4.1 14.38,-9.15 18.55,-15.46 4.17,-6.31 6.76,-13.25 7.78,-20.67 0.99,-7.57 0.54,-15.15 -1.34,-22.72 -3.41,-13.73 -10.93,-24.92 -22.48,-33.29 -11.59,-8.52 -25.63,-8.99 -42.12,-1.42 -3.66,-3.16 -6.2,-8.2 -7.64,-15.14 -1.43,-6.94 -1.01,-13.88 1.21,-21.14 2.22,-7.26 6.5,-13.72 12.88,-19.24 6.34,-5.68 15.54,-8.52 27.59,-8.52 21.25,0 39.43,7.89 54.54,23.67 15.12,15.77 25.34,34.39 30.67,55.84 3.61,14.52 4.41,29.34 2.44,44.49 -1.98,15.15 -7.19,28.87 -15.62,41.18 -8.43,12.3 -20.7,22.4 -36.83,30.28 -16.13,7.89 -36.54,11.83 -61.23,11.83 -25.83,0 -49.92,-5.05 -72.23,-15.14 -22.32,-10.1 -42.34,-23.67 -60.07,-40.7 -17.72,-17.04 -32.78,-36.6 -45.15,-58.68 -12.38,-22.09 -21.47,-44.8 -27.26,-68.15 -6.42,-25.87 -8.32,-51.43 -5.69,-76.67 2.63,-25.24 10.48,-47.96 23.55,-68.15 13.07,-20.19 31.96,-36.6 56.68,-49.22 24.71,-12.62 56.02,-18.93 93.91,-18.93 29.28,0 57.41,2.84 84.37,8.52 26.96,5.68 52.47,12.46 76.54,20.35 24.07,7.89 46.59,15.93 67.58,24.14 20.99,8.21 40.07,14.52 57.24,18.93 16.39,-12.62 34.92,-18.93 55.59,-18.93 14.93,0 26.32,2.53 34.18,7.57 7.86,5.05 12.65,11.04 14.38,17.99 1.88,7.57 -0.66,14.67 -7.63,21.29 -6.97,6.63 -18.7,10.26 -35.19,10.88 -8.35,19.56 -10.37,43.23 -6.06,70.99 4.31,27.77 10.58,58.21 18.81,91.34 8.23,33.13 16.07,68.15 23.51,105.06 7.45,36.91 10.05,73.99 7.81,111.21 13.09,-39.75 25.81,-82.19 38.14,-127.3 12.34,-45.12 26.92,-87.55 43.74,-127.31 16.83,-39.75 37.06,-74.46 60.7,-104.12 23.64,-29.66 53.03,-48.9 88.15,-57.74 3.92,-5.05 9.67,-9.62 17.26,-13.72 7.6,-4.1 17.13,-6.15 28.62,-6.15z"/>
    </g>
    <path class="fil1" d="M152.89 908.96c-30.23,0.99 -55.55,-22.72 -56.54,-52.95 -0.99,-30.24 22.72,-55.55 52.95,-56.54 30.23,-0.99 55.54,22.72 56.53,52.95 0.99,30.23 -22.72,55.55 -52.95,56.54zm391.74 -12.55c-28.48,10.21 -59.84,-4.61 -70.04,-33.09 -5.12,-14.31 -3.93,-29.34 2.13,-42.05 7.9,-19.42 26.65,-33.39 48.96,-34.12 30.24,-0.99 55.55,22.72 56.53,52.95 0.3,9.2 -1.69,17.94 -5.44,25.69 -5.71,13.78 -16.99,25.19 -32.14,30.62zm354.5 -127.03c-28.48,10.21 -59.84,-4.61 -70.04,-33.09 -10.21,-28.48 4.61,-59.83 33.08,-70.04 28.49,-10.2 59.84,4.62 70.05,33.09 10.21,28.48 -4.61,59.84 -33.09,70.04zm48.84 -75.68c-6.44,-17.98 -19.5,-32.38 -36.77,-40.54 -17.26,-8.16 -36.68,-9.1 -54.66,-2.66 -17.99,6.44 -32.38,19.5 -40.54,36.78 -8.16,17.27 -9.1,36.68 -2.66,54.66 6.44,17.98 19.5,32.37 36.77,40.54 17.28,8.16 36.69,9.1 54.67,2.66 17.98,-6.45 32.37,-19.51 40.53,-36.77 8.17,-17.28 9.11,-36.68 2.66,-54.66zm-354.49 127.02c-6.44,-17.98 -19.5,-32.38 -36.78,-40.54 -17.27,-8.16 -36.68,-9.1 -54.66,-2.66 -17.98,6.44 -32.38,19.5 -40.54,36.77 -0.13,0.27 -0.25,0.55 -0.38,0.82 -3.68,9.12 -5.45,18.99 -5.12,29.11 0.62,19.09 8.65,36.79 22.59,49.85 13.94,13.06 32.13,19.9 51.22,19.28 19.09,-0.63 36.8,-8.65 49.85,-22.59 4.97,-5.3 9.03,-11.22 12.13,-17.57 7.24,-16.72 7.85,-35.26 1.68,-52.48zm-393.49 -18.7c-13.94,-13.06 -32.13,-19.91 -51.22,-19.28 -19.09,0.63 -36.79,8.65 -49.85,22.59 -13.06,13.94 -19.9,32.13 -19.28,51.22 0.63,19.09 8.65,36.79 22.59,49.85 13.94,13.06 32.13,19.91 51.22,19.28 19.09,-0.63 36.79,-8.65 49.85,-22.59 13.06,-13.94 19.9,-32.13 19.28,-51.22 -0.63,-19.09 -8.65,-36.79 -22.59,-49.85zm723.37 34.96c-36.43,13.05 -74.89,8.38 -105.97,-9.53 -27.33,1.26 -58.65,7.49 -90.66,18.96 -31.88,11.42 -59.92,26.42 -81.79,42.73 -0.97,2.41 -2.01,4.79 -3.12,7.13 -13.56,30.49 -39.06,55.6 -72.95,67.74 -51.58,18.48 -107.23,1.45 -140.25,-38.45 -25.35,-6.3 -55.21,-9.45 -87.06,-8.41 -33.99,1.11 -65.4,6.85 -91.28,15.73 -22.32,28.1 -56.36,46.59 -95.03,47.85 -69.87,2.29 -128.37,-52.5 -130.66,-122.37 -2.29,-69.87 52.5,-128.37 122.38,-130.66 32.22,-1.05 62.02,10.03 85.01,29.14 28.63,9.68 65.16,14.87 104.78,13.57 39.62,-1.3 75.74,-8.86 103.67,-20.4 21.69,-20.57 50.7,-33.58 82.92,-34.63 20.75,-0.68 40.49,3.67 58.06,11.95 28.51,-0.67 61.77,-6.94 95.82,-19.14 37.31,-13.37 69.38,-31.64 92.43,-51.17 14.35,-26.22 37.97,-47.5 68.32,-58.37 65.81,-23.58 138.28,10.65 161.87,76.46 23.58,65.82 -10.65,138.29 -76.46,161.87z"/>
   </g>
  </g>
 </g>
</svg>
